<?xml version="1.0" standalone="no"?>
<!DOCTYPE svg PUBLIC "-//W3C//DTD SVG 1.1//EN" "http://www.w3.org/Graphics/SVG/1.1/DTD/svg11.dtd" >
<svg xmlns="http://www.w3.org/2000/svg" xmlns:xlink="http://www.w3.org/1999/xlink" version="1.1">
<metadata></metadata>
<defs>
<font id="shanghairegular" horiz-adv-x="1490" >
<font-face units-per-em="2048" ascent="1638" descent="-410" />
<missing-glyph horiz-adv-x="392" />
<glyph horiz-adv-x="0" />
<glyph unicode="&#xd;" horiz-adv-x="392" />
<glyph unicode=" "  horiz-adv-x="392" />
<glyph unicode="&#x09;" horiz-adv-x="392" />
<glyph unicode="&#xa0;" horiz-adv-x="392" />
<glyph unicode="!" horiz-adv-x="384" d="M40 1133q141 110 272 265q100 -212 100 -517q0 -399 -172 -601h-7q18 188 18 301q0 388 -211 552zM132 176l151 126l53 -184l-149 -140z" />
<glyph unicode="&#x22;" horiz-adv-x="473" d="M42 1376q0 111 81 111q76 0 76 -121q0 -97 -21 -239q-17 -119 -35 -238h-38q-19 119 -37 238q-26 175 -26 249zM263 1376q0 111 80 111q77 0 77 -120q0 -97 -21 -240l-36 -238h-40l-42 338q-18 145 -18 149z" />
<glyph unicode="#" horiz-adv-x="1370" d="M119 373l44 125h298l99 269h-299l44 124h299l152 427h160l-152 -427h262l152 427h160l-152 -427h301l-44 -124h-303l-97 -269h301l-44 -125h-301l-158 -435h-158l156 435h-263l-156 -435h-159l154 435h-296zM620 498h263l99 269h-264z" />
<glyph unicode="$" horiz-adv-x="870" d="M106 544l6 3q159 -153 374 -152h21v272l-52 -47q-327 89 -327 307q0 152 116 238q104 79 263 79v134h60v-136q182 -3 299 -127l-7 -9q-156 83 -295 85v-351l55 -27q34 2 102 5l2 -9l-49 -27q216 -140 216 -309q0 -132 -95 -218q-93 -82 -228 -82v-164h-60v166 q-118 15 -202 52q-73 94 -199 317zM290 1020q0 -147 217 -191v360q-82 -9 -143 -48q-74 -48 -74 -121zM567 402q72 14 118.5 62.5t46.5 119.5q0 94 -93 176q-46 -31 -72 -47v-311z" />
<glyph unicode="%" horiz-adv-x="1260" d="M104 952q0 98 68 192q74 102 169 102q27 0 149 -55q-3 5 -49 53l1 3q197 -103 197 -321q0 -96 -63 -193q-70 -107 -163 -107q-12 0 -134 38q22 -24 48 -44l-2 -4q-221 102 -221 336zM198 844q0 -73 41 -140q138 22 220 102q89 87 89 220q0 70 -36 136q-129 -9 -221 -99 q-93 -93 -93 -219zM312 178l666 1029h72l-670 -1029h-68zM731 486q0 105 65 199q73 106 174 106q26 0 153 -53q-18 19 -53 57h2q201 -112 201 -328q0 -93 -71 -192q-76 -107 -165 -107q-21 0 -127 43l46 -44l-3 -5q-96 46 -157 132q-65 90 -65 192zM827 396q0 -73 43 -141 q136 22 218 101q89 86 89 217q0 69 -37 132q-131 -8 -221 -93q-92 -88 -92 -216z" />
<glyph unicode="&#x26;" horiz-adv-x="1127" d="M161 459q0 168 91 271q65 74 240 166q-84 112 -84 233q0 123 84 192q78 64 205 64q107 0 197 -67q97 -73 97 -175q0 -193 -308 -237q43 -79 137 -203q107 -140 144 -199q129 137 271 147q-7 -9 -52 -93q-30 -54 -74 -73q-37 -11 -105 -49q63 -118 63 -152 q0 -107 -135 -297q0 160 -69 324q-77 -112 -109 -278q-86 -37 -175 -37q-180 0 -302 145q-116 137 -116 318zM375 555q0 -88 118 -177q112 -85 204 -85q75 0 151 58q-41 101 -139 257q-101 160 -173 234q-161 -68 -161 -287zM573 1169q0 -92 86 -234q242 7 242 209 q0 59 -49 126q-54 71 -111 71q-66 0 -117 -53.5t-51 -118.5z" />
<glyph unicode="'" horiz-adv-x="200" d="M26 947q45 157 45 233q0 68 -31 178q89 -34 189 -103q-48 -130 -73 -173q-46 -79 -130 -135z" />
<glyph unicode="(" horiz-adv-x="555" d="M164 636q0 210 55 416q60 224 170 383h11q-102 -296 -102 -520q0 -387 293 -657q-125 -112 -217 -260q-210 223 -210 638z" />
<glyph unicode=")" horiz-adv-x="555" d="M70 1175q125 112 216 260q211 -225 211 -639q0 -210 -55 -416q-60 -223 -170 -382h-11q101 295 101 520q0 386 -292 657z" />
<glyph unicode="*" horiz-adv-x="739" d="M46 1229q52 69 81 137l202 -151l-37 249q43 -6 81 -6q39 0 79 6q-13 -83 -32 -249q35 37 96 81q51 37 103 73q24 -68 79 -136q-11 -4 -232 -95l233 -92q-54 -69 -80 -133l-204 156l40 -251q-40 6 -75 6q-38 0 -84 -6l31 253l-199 -162q-32 78 -80 137l238 94z" />
<glyph unicode="+" horiz-adv-x="1333" d="M152 498v235h501v502h235v-502h496v-235h-496v-498h-235v498h-501z" />
<glyph unicode="," horiz-adv-x="476" d="M101 -18q51 120 51 228q0 94 -38 186h156l204 -92q-26 -117 -67 -182t-135 -140h-171z" />
<glyph unicode="-" horiz-adv-x="544" d="M147 526q110 -49 234 -49q95 0 230 30q-163 -146 -382 -163z" />
<glyph unicode="." horiz-adv-x="419" d="M66 5q56 82 112 193q97 -8 204 0q-50 -113 -110 -193q-54 -8 -105 -8q-52 0 -101 8z" />
<glyph unicode="/" horiz-adv-x="1068" d="M-20 -225q184 498 467 954q333 535 684 802q-287 -335 -542 -797q-282 -513 -354 -887q-150 -34 -255 -72z" />
<glyph unicode="0" horiz-adv-x="1346" d="M142 781q0 364 289 575q140 102 241 102q68 0 185 -45l180 -78q-13 20 -121 123l5 8q215 -114 335 -303q124 -195 124 -431q0 -177 -74 -334q-77 -164 -216 -265q-148 -109 -240 -109q-48 0 -153 38l-154 58q56 -55 112 -104l-7 -9q-233 108 -368 313q-138 208 -138 461z M358 562q0 -189 97 -344q302 45 499 227q215 199 215 491q0 178 -84 331q-291 -16 -505 -215q-222 -207 -222 -490z" />
<glyph unicode="1" horiz-adv-x="1346" d="M547 434q0 250 108 518q111 277 288 443l10 -6q-198 -335 -198 -651q0 -291 181 -498q-116 -85 -161 -128q-74 -70 -125 -163q-103 237 -103 485z" />
<glyph unicode="2" horiz-adv-x="1346" d="M196 20q123 123 265 193q49 19 145 65q120 73 210.5 227.5t90.5 291.5q0 78 -41 141q-48 72 -122 72q-135 0 -282 -135q-113 -104 -203 -253v414q63 134 227 237t312 103q150 0 261 -101q114 -104 114 -252q0 -182 -169 -400q-67 -86 -308 -330q249 46 388 46 q105 0 208 -21q-92 -96 -129 -153q-43 -67 -84 -183q-277 91 -497 91q-180 0 -386 -53z" />
<glyph unicode="3" horiz-adv-x="1346" d="M134 253q159 134 279 296q203 -214 427 -214q138 0 216 84q75 81 75 218q0 77 -24 116q-16 27 -83 85q-191 -156 -393 -165q58 166 57 329q171 37 268 101q117 76 182 217q-327 -155 -672 -155q-125 0 -224 24q105 114 119 131q58 73 87 155q227 -100 437 -100 q129 0 277 32l27 44l15 -35q63 14 149 28l-149 -95v-23q3 -236 -143 -455q195 -156 195 -360q0 -216 -172 -364q-164 -141 -385 -141q-271 0 -565 247z" />
<glyph unicode="4" horiz-adv-x="1346" d="M136 396q65 40 185 126q-42 95 -136 244q130 123 163 168q73 99 73 218q0 86 -37 263q152 -218 152 -480q0 -192 -84 -351q118 39 172 53q98 26 178 30q52 248 136 412q61 120 237 361q-27 -61 -82 -186q-113 -260 -113 -494q0 -50 6 -102q157 -34 295 -114 q-88 -46 -215 -159q54 -95 120 -176q-120 -63 -170 -113q-27 -27 -124 -161q-101 204 -123 545q-64 10 -153 10q-113 0 -214 -19l-42 -56l-15 43q-19 -4 -209 -62z" />
<glyph unicode="5" horiz-adv-x="1346" d="M77 1393q65 -25 213 -47l-13 58q22 -22 66 -64q176 -5 205 -5q269 0 432 91q50 -169 215 -330q-69 -30 -175 -30q-197 0 -592 109q18 -100 11 -177q290 -39 529 -180q300 -178 300 -425q0 -163 -144 -269q-132 -97 -303 -97q-197 0 -421 146l-211 362q178 -99 216 -116 q130 -60 234 -60q107 0 181 44q90 52 90 150q0 70 -55 154q-47 72 -112 124q-110 88 -317 125l-39 -92q-100 23 -198 25q42 59 48 97q-18 6 -92 5v9q53 11 99 9q47 110 46 215v16q-98 57 -114 67q-63 42 -99 86z" />
<glyph unicode="6" horiz-adv-x="1346" d="M197 744q0 418 394 703q277 -74 474 -112q-601 -223 -601 -717q0 -86 19 -180q26 -121 70 -158q38 -33 125 -33q149 0 267 95q125 101 125 244q0 106 -98 174q-89 61 -200 61q-84 0 -196 -39q142 115 326 115q176 0 292 -126q113 -124 113 -299q0 -159 -124 -283 q-113 -111 -278 -153q-78 80 -147 121q-58 36 -172 79q123 -150 277 -220l-4 -11q-180 16 -351.5 134t-248.5 281q-62 132 -62 324z" />
<glyph unicode="7" horiz-adv-x="1346" d="M149 1046q148 102 227 321q283 -100 503 -100q71 0 121 17q89 106 162 156l7 -5q-38 -48 -114 -142q90 16 221 63q-105 -115 -333 -250q-128 -246 -128 -459q0 -182 105 -431q-193 -115 -309 -211q-33 135 -33 276q0 416 270 803q-265 -65 -463 -65q-133 0 -236 27z" />
<glyph unicode="8" horiz-adv-x="1346" d="M206 96q20 262 251 573q-132 90 -173 138q-75 84 -75 202q0 193 173 321q159 117 361 117q219 0 417 -156q-141 -103 -141 -194l2 -13q72 35 220 98l4 -7q-300 -174 -425 -311q229 -94 316 -163q151 -119 151 -303q0 -181 -150 -294q-137 -104 -325 -104t-428 127 q-28 -2 -178 -31zM430 135q138 -77 268 -77q127 0 239 59q134 71 134 185q0 107 -173 197q-116 60 -270 96q-74 -168 -74 -302q0 -76 22 -149q-74 0 -146 -9zM440 1140q0 -88 95 -156q72 -53 175 -80q65 45 278 169q-38 97 -117 179q-94 95 -185 95q-97 0 -168 -54 q-78 -60 -78 -153z" />
<glyph unicode="9" horiz-adv-x="1346" d="M209 974q0 166 134 293q60 58 159 111q112 61 179 61l9 -1q110 -133 274 -223q-52 90 -94 135q-35 36 -127 103l6 7q235 -92 374 -309q135 -212 135 -467t-163 -448q-151 -178 -407 -263l-470 225q338 12 566 188q252 196 252 518q0 133 -45 256q-62 24 -140 24 q-162 0 -269 -82q-118 -90 -118 -246q0 -118 88 -188q81 -65 203 -65q92 0 212 70q-115 -151 -332 -151q-171 0 -300 142q-126 138 -126 310z" />
<glyph unicode=":" horiz-adv-x="419" d="M70 5q50 74 114 193q78 -9 201 0q-50 -113 -110 -193q-53 -8 -105 -8q-51 0 -100 8zM154 320q50 73 114 193q79 -10 202 0q-50 -114 -110 -193q-51 -10 -102 -10t-104 10z" />
<glyph unicode=";" horiz-adv-x="508" d="M70 -25q9 20 82 119q57 76 57 125q0 31 -18 81h308q-40 -127 -127 -203q-62 -54 -209 -122l-49 -2zM127 353q72 86 126 185q208 -7 300 0q-15 -33 -111 -183q-53 -8 -126 -8q14 0 -189 6z" />
<glyph unicode="&#x3c;" horiz-adv-x="1074" d="M178 513v218l898 331v-200l-687 -240l687 -240v-200z" />
<glyph unicode="=" horiz-adv-x="1675" d="M178 225v233h1492v-233h-1492zM178 773v233h1492v-233h-1492z" />
<glyph unicode="&#x3e;" horiz-adv-x="1074" d="M174 182v200l687 240l-687 240v200l898 -331v-218z" />
<glyph unicode="?" horiz-adv-x="842" d="M39 1042q49 128 179 222t265 94q179 0 297 -143q111 -135 111 -318q0 -300 -381 -599q-26 -20 -69 -69l-13 6q7 44 93 146q110 131 151 200q79 133 79 266q0 100 -51 167q-56 74 -153 74q-130 0 -232 -92q-99 -88 -124 -218zM435 209l151 126l53 -186l-149 -140z" />
<glyph unicode="@" horiz-adv-x="1837" d="M184 505q0 380 286 620q269 227 660 227q317 0 516 -153q218 -169 218 -475q0 -223 -112 -395q-128 -199 -342 -199q-199 0 -221 175q-113 -178 -292 -178q-139 0 -222 91q-81 88 -81 227q0 196 131 360q140 176 332 176q164 0 226 -148l35 114h233q-49 -157 -98 -315 q-66 -223 -66 -304q0 -75 70 -75q146 0 233 168q71 138 71 299q0 256 -197 403q-177 132 -444 132q-326 0 -542 -226q-213 -222 -213 -546q0 -310 200 -495q195 -180 509 -180q297 0 591 183l48 -80q-332 -209 -699 -209q-358 0 -592 223q-238 226 -238 580zM839 361 q0 -42 33.5 -79t75.5 -37q115 0 203 189q74 160 74 292q0 131 -123 131q-104 0 -190 -201q-73 -172 -73 -295z" />
<glyph unicode="A" horiz-adv-x="1227" d="M70 295q158 95 262 267q-88 63 -121 89q-66 53 -108 104l3 7q86 -42 263 -115q78 176 78 462q0 116 -16 173q-39 30 -115 91l5 7q46 -14 105 -53q-19 59 -37 106l9 3q49 -65 68 -130q351 -203 552 -519q209 -331 209 -721q0 -45 -3 -90q-130 97 -336 171q35 112 35 198v9 l-2 50l-51 -1h-6q-157 0 -334 55q-69 -295 -273 -498q-67 174 -187 335zM492 1227q65 -250 65 -501q0 -60 -4 -115q70 -11 127 -11q50 0 146 11q48 -67 90 -113q-15 182 -148 399q-121 198 -276 330z" />
<glyph unicode="B" horiz-adv-x="1328" d="M20 1256q26 22 76 50q57 31 78 47q-14 25 -44 76l6 6q47 -23 79 -69q202 64 363 64q184 0 324 -96q157 -109 157 -284q0 -147 -92 -277q371 -115 371 -384q0 -148 -134 -282q-138 -138 -416 -138q-76 0 -146 11l-218 165q-48 -133 -86 -152q-58 100 -108 152 q-47 49 -147 115q192 245 209 529l-99 -9v9q55 20 99 24v22v13q0 235 -107 465l-161 -64zM239 1326q138 -194 203 -490q139 23 251 86q146 83 146 195q0 116 -142 181q-113 52 -245 52q-104 0 -213 -24zM455 760q17 -121 17 -283q0 -119 -15 -210q94 -36 184 -36 q122 0 206 57q97 65 97 180q0 102 -118 201q-105 -55 -195 -76q-80 138 -176 167z" />
<glyph unicode="C" horiz-adv-x="1425" d="M147 714q0 282 179 476q184 201 466 201q165 0 377 -100v40q104 13 178 71q-4 -96 -46 -213q25 -28 65 -89l-6 -7l-77 62q-107 -170 -207 -229l-8 5q86 143 101 300q-134 71 -288 71q-205 0 -351 -146t-146 -349q0 -228 182 -365q165 -124 402 -124q257 0 414 180l8 -7 l-327 -467q-105 -20 -189 -20q-312 0 -519.5 200.5t-207.5 509.5z" />
<glyph unicode="D" horiz-adv-x="1319" d="M35 1262q70 45 163 91l-40 82l9 5q44 -35 70 -78q183 57 358 57q330 0 538 -193q214 -199 214 -523q0 -228 -170 -444q-166 -209 -390 -283l-361 208q-35 -85 -92 -189q-56 120 -102 169q-19 19 -151 123q213 255 213 595q0 205 -77 422q-60 -19 -180 -53zM264 1313 q205 -361 205 -788q0 -116 -17 -227q56 -6 97 -6q176 0 323.5 152.5t147.5 327.5q0 281 -201 423q-174 123 -469 123q-45 0 -86 -5z" />
<glyph unicode="E" horiz-adv-x="1195" d="M79 1169l5 9q37 -45 125 -125q33 69 105 180q-61 40 -171 133l4 9q117 -48 220 -69q39 39 77 78q49 49 86 63l8 -5q-28 -37 -56 -73q-36 -49 -43 -78q104 -20 201 -20q176 0 388 67q74 -229 141 -360h-36h-14q-360 0 -734 208q-40 -123 -40 -231q207 -153 462 -153 q29 0 59 2q82 -155 134 -228l-48 -1h-20q-282 0 -567 220q53 -210 221 -352q174 -148 388 -148q116 0 256 58l7 -11q-71 -90 -185 -197q-100 -91 -200 -181q-18 -3 -33 -3l-15 1q-128 3 -276 92q-138 82 -221 191q-152 198 -152 482q0 120 29 251q-84 100 -105 191z" />
<glyph unicode="F" horiz-adv-x="1085" d="M55 1375l4 9q177 -58 279 -80q21 44 77 125l11 -3q-22 -64 -41 -131q96 -17 181 -17q166 0 401 75q59 -153 191 -353q-80 -19 -176 -19q-306 0 -631 175q-24 -131 -26 -240q216 -121 443 -121q25 0 49 1q77 -150 126 -223h-12q-167 0 -312 55q-122 45 -290 156 q43 -336 280 -524q-165 -136 -264 -278q-181 222 -181 578q0 155 36 329q-54 64 -75 91q-38 52 -61 100l6 11q48 -41 148 -118q23 105 72 223q-97 62 -127 83q-85 59 -108 96z" />
<glyph unicode="G" horiz-adv-x="1429" d="M162 701q0 288 197.5 482.5t487.5 194.5q144 0 309 -58l-1 13q68 4 170 20q-2 -54 -36 -153q30 -54 77 -169l-10 -2q-30 43 -93 126q-68 -103 -169 -189l-11 1q45 104 52 123q20 58 27 132q-102 58 -241 58q-221 0 -366.5 -143t-145.5 -362q0 -205 182 -347 q169 -132 382 -132q214 0 365 217l-42 -1h-24l-354 55q-203 63 -334 179l7 9q214 -82 422 -82q184 0 334 65q63 -57 193 -165q-39 -36 -161 -57q-35 -78 -164 -268q-142 -207 -189 -226q-70 -29 -180 -29q-293 0 -491 210q-193 205 -193 498z" />
<glyph unicode="H" horiz-adv-x="1035" d="M17 1418l12 15q297 -355 391 -686q123 -63 254 -87q-29 126 -29 248q0 254 117 459q90 -121 279 -223q-187 -237 -187 -506h47q32 -72 103 -214q-43 1 -130 3q37 -179 196 -472l-7 -10q-218 240 -325 506q-152 36 -285 127q9 -65 9 -129q0 -242 -124 -451 q-119 152 -255 227q96 146 137 240q57 133 57 268q-120 123 -183 211l7 9q54 -40 167 -113q-16 105 -105 293q-22 46 -146 285z" />
<glyph unicode="I" horiz-adv-x="443" d="M44 1431l11 4q398 -459 398 -991q0 -273 -113 -468q-69 142 -276 255q181 224 181 519q0 311 -201 681z" />
<glyph unicode="J" horiz-adv-x="965" d="M42 171q149 46 294 162q148 -99 213 -131q119 -56 242 -58q-270 398 -270 834q0 280 120 453q129 -170 279 -264q-192 -227 -192 -529q0 -228 111 -491q38 2 125 51l9 -7q-53 -50 -114 -87q27 -43 77 -129l-9 -10q-63 77 -97 120q-136 -71 -300 -71q-258 0 -488 157z" />
<glyph unicode="K" horiz-adv-x="936" d="M48 1395l11 7q218 -248 321 -542q157 95 256 228q90 119 155 305q70 -89 123 -322q-120 -153 -312 -249q323 -261 323 -615q0 -109 -29 -229q-128 144 -254 217q45 153 45 268q0 188 -127 341q-62 -28 -145 -57q44 -162 44 -323q0 -267 -114 -433q-104 134 -272 236 q147 266 160 489q-59 -2 -176 -5v11q61 17 178 62q-2 214 -187 611z" />
<glyph unicode="L" horiz-adv-x="936" d="M2 33q102 78 209 129q116 279 116 494q0 141 -50 271q-58 124 -115 248q199 119 273 220q97 -141 97 -379q0 -416 -251 -825q182 69 362 69q221 0 367 -98q-23 -17 -193 -162q-151 98 -414 98q-95 0 -192 -16q-23 -37 -73 -106l-10 4q16 32 46 96q-31 -6 -165 -52z" />
<glyph unicode="M" horiz-adv-x="1359" d="M157 437q0 391 265 785q-61 59 -178 182l9 9q115 -57 211 -129q36 55 116 158l11 -4q-56 -89 -99 -178q168 -133 257 -289q95 156 262 280q-33 61 -101 184l8 5q62 -69 132 -165q44 35 138 96l5 -9q-37 -45 -110 -135q278 -414 278 -809q0 -237 -111 -416 q-85 111 -275 229q157 232 157 509q0 207 -88 436q-126 -169 -194 -376q46 -116 46 -218v-12l-2 -50l-141 -120q-51 65 -136 135q-5 31 -5 64q0 105 47 210q-85 230 -202 369q-85 -213 -85 -415q0 -287 168 -532q-202 -126 -281 -231q-102 202 -102 437z" />
<glyph unicode="N" horiz-adv-x="1136" d="M143 1073q48 67 143 236l74 -53q70 121 136 206l11 -6q-40 -74 -109 -227q309 -243 564 -778q8 68 8 133q0 368 -252 587q151 126 248 258q155 -193 155 -557q0 -280 -100 -554q48 -104 134 -318l-10 -5q-6 9 -163 221q-49 -105 -65 -135q-39 -76 -78 -128l-11 2 q67 163 106 325q-351 471 -600 662q-6 -56 -6 -111q0 -300 226 -606q-168 -137 -251 -249q-145 212 -145 531q0 245 90 495q-15 11 -105 71z" />
<glyph unicode="O" d="M154 657q0 258 163 481q159 216 406 313l8 -9q-106 -58 -178 -140q238 53 414 105q241 -24 405 -229q157 -196 157 -440q0 -293 -232 -531q-224 -230 -522 -272l-6 9q148 55 268 141l-328 -121q-245 43 -402 246q-153 197 -153 447zM380 844q0 -277 229 -477 q211 -185 500 -216q159 163 159 395q0 308 -228 499q-204 171 -528 206q-132 -185 -132 -407z" />
<glyph unicode="P" horiz-adv-x="1056" d="M0 1229q35 44 125 82q-22 40 -63 120l6 6q55 -61 90 -111q212 85 398 85q203 0 367 -101q189 -117 189 -307q0 -154 -114 -270q-105 -107 -264 -142q-106 113 -308 184q39 -154 39 -301q0 -276 -131 -492q-106 142 -261 269q183 284 183 530q0 209 -120 499 q-22 -8 -132 -58zM184 1291q159 -226 229 -473q151 0 287 58q174 73 174 200q0 128 -159 193q-119 50 -270 50q-126 0 -261 -28z" />
<glyph unicode="Q" d="M154 658q0 263 161 482q157 215 408 311l8 -9q-107 -58 -178 -140q239 53 414 105q240 -24 404 -228q158 -196 158 -439q0 -265 -196 -502q120 -90 196 -231h-56q-110 0 -173 -11q-36 60 -90 126q-202 -157 -435 -187l-6 9q148 55 268 141l-328 -121q-246 43 -403 247 q-152 196 -152 447zM380 844q0 -277 229 -477q211 -185 500 -216l35 40q-165 157 -423 216l4 13q31 5 68 5q224 0 428 -110q47 95 47 228q0 310 -227 502q-203 170 -529 206q-132 -185 -132 -407z" />
<glyph unicode="R" horiz-adv-x="1035" d="M-6 1384l10 9q37 -34 102 -109q84 56 226 97t246 41q191 0 328 -110q148 -117 148 -302q0 -271 -364 -415l-68 56q100 -287 415 -373q-22 -103 -22 -311q-226 49 -352 281q-109 199 -109 450q-88 53 -156 75q64 -250 64 -396q0 -224 -119 -426q-82 133 -281 254 q194 232 194 481q0 221 -162 540q-26 -17 -79 -50l-8 8q27 40 72 71q-29 42 -85 129zM130 1249q138 -179 255 -433q99 0 179 28q17 60 40 83l9 -3q-6 -23 -15 -69q191 83 191 236q0 110 -136 178q-113 56 -236 56q-159 0 -287 -76z" />
<glyph unicode="S" horiz-adv-x="1116" d="M77 473l7 7q212 -205 488 -205q149 0 237 62q101 71 101 212q0 106 -124 215q-173 -108 -245 -186q-182 44 -296 136q-140 114 -140 278q0 206 166 319q144 98 362 98q290 0 454 -174l-6 -9q-230 114 -402 114q-127 0 -231 -52q-129 -65 -129 -177q0 -216 362 -267 l-61 42l8 7q42 -13 132 -57q45 2 134 4l4 -11l-66 -34q286 -192 286 -428q0 -175 -136 -284q-127 -101 -308 -101q-174 0 -333 69q-113 152 -264 422z" />
<glyph unicode="T" horiz-adv-x="1067" d="M-17 1046q101 129 188 329q184 -74 365 -74q41 0 84 3q32 49 103 142l9 -4q-39 -65 -71 -135q70 8 415 97l9 -8q-229 -203 -510 -300q-48 -157 -48 -304q0 -262 180 -550q-156 -106 -287 -247q-96 164 -96 420q0 328 153 651q-151 -40 -297 -40q-103 0 -197 20z" />
<glyph unicode="U" horiz-adv-x="1026" d="M86 167q103 65 257 86q-198 347 -198 690q0 239 97 448q101 -126 270 -242q-165 -230 -165 -520q0 -176 62 -371h107q361 343 361 869q0 122 -18 255l11 5q123 -272 123 -611q0 -351 -121 -603q138 -60 209 -106l-5 -9q-134 41 -237 55q-54 -91 -121 -133q-32 48 -98 142 q-46 -1 -146 -26l66 -114l-8 -4q-29 36 -84 109q-80 -26 -163 -71q-92 92 -199 151z" />
<glyph unicode="V" horiz-adv-x="1056" d="M87 1092q0 154 49 299q88 -93 294 -207q-79 -202 -79 -371q0 -199 113 -413q499 236 547 1009h11q19 -119 19 -238q0 -291 -102 -556q-110 -285 -313 -468q48 -55 139 -167l-9 -5q-97 74 -167 136q-90 -70 -182 -111q-12 125 -23 179q-18 94 -55 172l33 9 q-275 362 -275 732z" />
<glyph unicode="W" horiz-adv-x="1348" d="M118 956q0 255 119 440q94 -122 268 -236q-81 -166 -108 -247q-44 -131 -44 -267q0 -214 100 -462q121 155 200 358q-50 119 -51 256l143 131l153 -109q0 -135 -57 -267q71 -201 205 -388q107 272 107 493q0 280 -184 513q113 74 152 104q81 62 131 127 q108 -183 108 -437q0 -417 -286 -836q39 -39 115 -116l-7 -9q-59 32 -136 83q-22 -37 -71 -109l-11 2q37 73 58 125q-176 130 -279 277q-108 -150 -264 -262q25 -41 74 -122l-10 -7q-59 61 -93 109q-51 -37 -158 -100l-7 5q71 61 134 137q-301 401 -301 814z" />
<glyph unicode="X" horiz-adv-x="1045" d="M17 1182q152 85 299 227q241 -168 282 -474q198 323 468 487l6 -9q-347 -349 -347 -660q0 -315 341 -513q-156 -87 -279 -222q-225 175 -257 506q-220 -365 -484 -519l-7 8q362 299 362 619q0 195 -107 331q-85 108 -277 219z" />
<glyph unicode="Y" horiz-adv-x="916" d="M79 1420l7 6q221 -258 316 -550q158 223 158 495q67 0 167 18q152 26 165 27q-29 -176 -169 -366q-123 -167 -288 -290q31 -128 31 -272q0 -292 -119 -510q-90 135 -266 249q127 171 176 422q-31 -19 -95 -53l-8 8q44 42 114 111q4 34 4 70q0 246 -193 635z" />
<glyph unicode="Z" horiz-adv-x="1319" d="M29 1280q183 96 428 96q295 0 628 -134q75 41 231 111l4 -7q-97 -55 -195 -120q78 -34 125 -57l-5 -9q-12 2 -84 19q-51 12 -85 12q-489 -349 -489 -792q0 -40 4 -81q205 65 378 65q113 0 202 -27q-93 -107 -193 -343q-200 87 -412 87q-214 0 -520 -96l-7 9 q148 138 370 234q-100 -26 -178 -52q0 598 769 1003q-39 2 -76 2q-311 0 -617 -200q-114 166 -278 280z" />
<glyph unicode="[" horiz-adv-x="644" d="M158 -273v1693h446v-62h-241v-1569h241v-62h-446z" />
<glyph unicode="\" horiz-adv-x="820" d="M-207 1446q349 -267 683 -803q283 -455 467 -954q-104 39 -255 73q-70 373 -353 886q-255 462 -542 798z" />
<glyph unicode="]" horiz-adv-x="644" d="M116 -211h242v1569h-242v62h446v-1693h-446v62z" />
<glyph unicode="^" horiz-adv-x="320" d="M-239 1571q95 72 188 178h135q89 -115 188 -178l-10 -14q-127 25 -245 90q-128 -66 -248 -90z" />
<glyph unicode="_" horiz-adv-x="1067" d="M7 -236h1102v-73h-1102v73z" />
<glyph unicode="`" horiz-adv-x="245" d="M-163 1764q70 105 137 167q18 -128 53 -201q32 -65 120 -172q-100 21 -173 76q-30 23 -137 130z" />
<glyph unicode="a" horiz-adv-x="1227" d="M70 295q158 95 262 267q-88 63 -121 89q-66 53 -108 104l3 7q86 -42 263 -115q78 176 78 462q0 116 -16 173q-39 30 -115 91l5 7q46 -14 105 -53q-19 59 -37 106l9 3q49 -65 68 -130q351 -203 552 -519q209 -331 209 -721q0 -45 -3 -90q-130 97 -336 171q35 112 35 198v9 l-2 50l-51 -1h-6q-157 0 -334 55q-69 -295 -273 -498q-67 174 -187 335zM492 1227q65 -250 65 -501q0 -60 -4 -115q70 -11 127 -11q50 0 146 11q48 -67 90 -113q-15 182 -148 399q-121 198 -276 330z" />
<glyph unicode="b" horiz-adv-x="1328" d="M20 1256q26 22 76 50q57 31 78 47q-14 25 -44 76l6 6q47 -23 79 -69q202 64 363 64q184 0 324 -96q157 -109 157 -284q0 -147 -92 -277q371 -115 371 -384q0 -148 -134 -282q-138 -138 -416 -138q-76 0 -146 11l-218 165q-48 -133 -86 -152q-58 100 -108 152 q-47 49 -147 115q192 245 209 529l-99 -9v9q55 20 99 24v22v13q0 235 -107 465l-161 -64zM239 1326q138 -194 203 -490q139 23 251 86q146 83 146 195q0 116 -142 181q-113 52 -245 52q-104 0 -213 -24zM455 760q17 -121 17 -283q0 -119 -15 -210q94 -36 184 -36 q122 0 206 57q97 65 97 180q0 102 -118 201q-105 -55 -195 -76q-80 138 -176 167z" />
<glyph unicode="c" horiz-adv-x="1425" d="M147 714q0 282 179 476q184 201 466 201q165 0 377 -100v40q104 13 178 71q-4 -96 -46 -213q25 -28 65 -89l-6 -7l-77 62q-107 -170 -207 -229l-8 5q86 143 101 300q-134 71 -288 71q-205 0 -351 -146t-146 -349q0 -228 182 -365q165 -124 402 -124q257 0 414 180l8 -7 l-327 -467q-105 -20 -189 -20q-312 0 -519.5 200.5t-207.5 509.5z" />
<glyph unicode="d" horiz-adv-x="1319" d="M35 1262q70 45 163 91l-40 82l9 5q44 -35 70 -78q183 57 358 57q330 0 538 -193q214 -199 214 -523q0 -228 -170 -444q-166 -209 -390 -283l-361 208q-35 -85 -92 -189q-56 120 -102 169q-19 19 -151 123q213 255 213 595q0 205 -77 422q-60 -19 -180 -53zM264 1313 q205 -361 205 -788q0 -116 -17 -227q56 -6 97 -6q176 0 323.5 152.5t147.5 327.5q0 281 -201 423q-174 123 -469 123q-45 0 -86 -5z" />
<glyph unicode="e" horiz-adv-x="1195" d="M79 1169l5 9q37 -45 125 -125q33 69 105 180q-61 40 -171 133l4 9q117 -48 220 -69q39 39 77 78q49 49 86 63l8 -5q-28 -37 -56 -73q-36 -49 -43 -78q104 -20 201 -20q176 0 388 67q74 -229 141 -360h-36h-14q-360 0 -734 208q-40 -123 -40 -231q207 -153 462 -153 q29 0 59 2q82 -155 134 -228l-48 -1h-20q-282 0 -567 220q53 -210 221 -352q174 -148 388 -148q116 0 256 58l7 -11q-71 -90 -185 -197q-100 -91 -200 -181q-18 -3 -33 -3l-15 1q-128 3 -276 92q-138 82 -221 191q-152 198 -152 482q0 120 29 251q-84 100 -105 191z" />
<glyph unicode="f" horiz-adv-x="1085" d="M55 1375l4 9q177 -58 279 -80q21 44 77 125l11 -3q-22 -64 -41 -131q96 -17 181 -17q166 0 401 75q59 -153 191 -353q-80 -19 -176 -19q-306 0 -631 175q-24 -131 -26 -240q216 -121 443 -121q25 0 49 1q77 -150 126 -223h-12q-167 0 -312 55q-122 45 -290 156 q43 -336 280 -524q-165 -136 -264 -278q-181 222 -181 578q0 155 36 329q-54 64 -75 91q-38 52 -61 100l6 11q48 -41 148 -118q23 105 72 223q-97 62 -127 83q-85 59 -108 96z" />
<glyph unicode="g" horiz-adv-x="1429" d="M162 701q0 288 197.5 482.5t487.5 194.5q144 0 309 -58l-1 13q68 4 170 20q-2 -54 -36 -153q30 -54 77 -169l-10 -2q-30 43 -93 126q-68 -103 -169 -189l-11 1q45 104 52 123q20 58 27 132q-102 58 -241 58q-221 0 -366.5 -143t-145.5 -362q0 -205 182 -347 q169 -132 382 -132q214 0 365 217l-42 -1h-24l-354 55q-203 63 -334 179l7 9q214 -82 422 -82q184 0 334 65q63 -57 193 -165q-39 -36 -161 -57q-35 -78 -164 -268q-142 -207 -189 -226q-70 -29 -180 -29q-293 0 -491 210q-193 205 -193 498z" />
<glyph unicode="h" horiz-adv-x="1035" d="M17 1418l12 15q297 -355 391 -686q123 -63 254 -87q-29 126 -29 248q0 254 117 459q90 -121 279 -223q-187 -237 -187 -506h47q32 -72 103 -214q-43 1 -130 3q37 -179 196 -472l-7 -10q-218 240 -325 506q-152 36 -285 127q9 -65 9 -129q0 -242 -124 -451 q-119 152 -255 227q96 146 137 240q57 133 57 268q-120 123 -183 211l7 9q54 -40 167 -113q-16 105 -105 293q-22 46 -146 285z" />
<glyph unicode="i" horiz-adv-x="443" d="M44 1431l11 4q398 -459 398 -991q0 -273 -113 -468q-69 142 -276 255q181 224 181 519q0 311 -201 681z" />
<glyph unicode="j" horiz-adv-x="965" d="M42 171q149 46 294 162q148 -99 213 -131q119 -56 242 -58q-270 398 -270 834q0 280 120 453q129 -170 279 -264q-192 -227 -192 -529q0 -228 111 -491q38 2 125 51l9 -7q-53 -50 -114 -87q27 -43 77 -129l-9 -10q-63 77 -97 120q-136 -71 -300 -71q-258 0 -488 157z" />
<glyph unicode="k" horiz-adv-x="936" d="M48 1395l11 7q218 -248 321 -542q157 95 256 228q90 119 155 305q70 -89 123 -322q-120 -153 -312 -249q323 -261 323 -615q0 -109 -29 -229q-128 144 -254 217q45 153 45 268q0 188 -127 341q-62 -28 -145 -57q44 -162 44 -323q0 -267 -114 -433q-104 134 -272 236 q147 266 160 489q-59 -2 -176 -5v11q61 17 178 62q-2 214 -187 611z" />
<glyph unicode="l" horiz-adv-x="936" d="M2 33q102 78 209 129q116 279 116 494q0 141 -50 271q-58 124 -115 248q199 119 273 220q97 -141 97 -379q0 -416 -251 -825q182 69 362 69q221 0 367 -98q-23 -17 -193 -162q-151 98 -414 98q-95 0 -192 -16q-23 -37 -73 -106l-10 4q16 32 46 96q-31 -6 -165 -52z" />
<glyph unicode="m" horiz-adv-x="1359" d="M157 437q0 391 265 785q-61 59 -178 182l9 9q115 -57 211 -129q36 55 116 158l11 -4q-56 -89 -99 -178q168 -133 257 -289q95 156 262 280q-33 61 -101 184l8 5q62 -69 132 -165q44 35 138 96l5 -9q-37 -45 -110 -135q278 -414 278 -809q0 -237 -111 -416 q-85 111 -275 229q157 232 157 509q0 207 -88 436q-126 -169 -194 -376q46 -116 46 -218v-12l-2 -50l-141 -120q-51 65 -136 135q-5 31 -5 64q0 105 47 210q-85 230 -202 369q-85 -213 -85 -415q0 -287 168 -532q-202 -126 -281 -231q-102 202 -102 437z" />
<glyph unicode="n" horiz-adv-x="1136" d="M143 1073q48 67 143 236l74 -53q70 121 136 206l11 -6q-40 -74 -109 -227q309 -243 564 -778q8 68 8 133q0 368 -252 587q151 126 248 258q155 -193 155 -557q0 -280 -100 -554q48 -104 134 -318l-10 -5q-6 9 -163 221q-49 -105 -65 -135q-39 -76 -78 -128l-11 2 q67 163 106 325q-351 471 -600 662q-6 -56 -6 -111q0 -300 226 -606q-168 -137 -251 -249q-145 212 -145 531q0 245 90 495q-15 11 -105 71z" />
<glyph unicode="o" d="M154 657q0 258 163 481q159 216 406 313l8 -9q-106 -58 -178 -140q238 53 414 105q241 -24 405 -229q157 -196 157 -440q0 -293 -232 -531q-224 -230 -522 -272l-6 9q148 55 268 141l-328 -121q-245 43 -402 246q-153 197 -153 447zM380 844q0 -277 229 -477 q211 -185 500 -216q159 163 159 395q0 308 -228 499q-204 171 -528 206q-132 -185 -132 -407z" />
<glyph unicode="p" horiz-adv-x="1056" d="M0 1229q35 44 125 82q-22 40 -63 120l6 6q55 -61 90 -111q212 85 398 85q203 0 367 -101q189 -117 189 -307q0 -154 -114 -270q-105 -107 -264 -142q-106 113 -308 184q39 -154 39 -301q0 -276 -131 -492q-106 142 -261 269q183 284 183 530q0 209 -120 499 q-22 -8 -132 -58zM184 1291q159 -226 229 -473q151 0 287 58q174 73 174 200q0 128 -159 193q-119 50 -270 50q-126 0 -261 -28z" />
<glyph unicode="q" d="M154 658q0 263 161 482q157 215 408 311l8 -9q-107 -58 -178 -140q239 53 414 105q240 -24 404 -228q158 -196 158 -439q0 -265 -196 -502q120 -90 196 -231h-56q-110 0 -173 -11q-36 60 -90 126q-202 -157 -435 -187l-6 9q148 55 268 141l-328 -121q-246 43 -403 247 q-152 196 -152 447zM380 844q0 -277 229 -477q211 -185 500 -216l35 40q-165 157 -423 216l4 13q31 5 68 5q224 0 428 -110q47 95 47 228q0 310 -227 502q-203 170 -529 206q-132 -185 -132 -407z" />
<glyph unicode="r" horiz-adv-x="1035" d="M-6 1384l10 9q37 -34 102 -109q84 56 226 97t246 41q191 0 328 -110q148 -117 148 -302q0 -271 -364 -415l-68 56q100 -287 415 -373q-22 -103 -22 -311q-226 49 -352 281q-109 199 -109 450q-88 53 -156 75q64 -250 64 -396q0 -224 -119 -426q-82 133 -281 254 q194 232 194 481q0 221 -162 540q-26 -17 -79 -50l-8 8q27 40 72 71q-29 42 -85 129zM130 1249q138 -179 255 -433q99 0 179 28q17 60 40 83l9 -3q-6 -23 -15 -69q191 83 191 236q0 110 -136 178q-113 56 -236 56q-159 0 -287 -76z" />
<glyph unicode="s" horiz-adv-x="1116" d="M77 473l7 7q212 -205 488 -205q149 0 237 62q101 71 101 212q0 106 -124 215q-173 -108 -245 -186q-182 44 -296 136q-140 114 -140 278q0 206 166 319q144 98 362 98q290 0 454 -174l-6 -9q-230 114 -402 114q-127 0 -231 -52q-129 -65 -129 -177q0 -216 362 -267 l-61 42l8 7q42 -13 132 -57q45 2 134 4l4 -11l-66 -34q286 -192 286 -428q0 -175 -136 -284q-127 -101 -308 -101q-174 0 -333 69q-113 152 -264 422z" />
<glyph unicode="t" horiz-adv-x="1067" d="M-17 1046q101 129 188 329q184 -74 365 -74q41 0 84 3q32 49 103 142l9 -4q-39 -65 -71 -135q70 8 415 97l9 -8q-229 -203 -510 -300q-48 -157 -48 -304q0 -262 180 -550q-156 -106 -287 -247q-96 164 -96 420q0 328 153 651q-151 -40 -297 -40q-103 0 -197 20z" />
<glyph unicode="u" horiz-adv-x="1026" d="M86 167q103 65 257 86q-198 347 -198 690q0 239 97 448q101 -126 270 -242q-165 -230 -165 -520q0 -176 62 -371h107q361 343 361 869q0 122 -18 255l11 5q123 -272 123 -611q0 -351 -121 -603q138 -60 209 -106l-5 -9q-134 41 -237 55q-54 -91 -121 -133q-32 48 -98 142 q-46 -1 -146 -26l66 -114l-8 -4q-29 36 -84 109q-80 -26 -163 -71q-92 92 -199 151z" />
<glyph unicode="v" horiz-adv-x="1056" d="M87 1092q0 154 49 299q88 -93 294 -207q-79 -202 -79 -371q0 -199 113 -413q499 236 547 1009h11q19 -119 19 -238q0 -291 -102 -556q-110 -285 -313 -468q48 -55 139 -167l-9 -5q-97 74 -167 136q-90 -70 -182 -111q-12 125 -23 179q-18 94 -55 172l33 9 q-275 362 -275 732z" />
<glyph unicode="w" horiz-adv-x="1348" d="M118 956q0 255 119 440q94 -122 268 -236q-81 -166 -108 -247q-44 -131 -44 -267q0 -214 100 -462q121 155 200 358q-50 119 -51 256l143 131l153 -109q0 -135 -57 -267q71 -201 205 -388q107 272 107 493q0 280 -184 513q113 74 152 104q81 62 131 127 q108 -183 108 -437q0 -417 -286 -836q39 -39 115 -116l-7 -9q-59 32 -136 83q-22 -37 -71 -109l-11 2q37 73 58 125q-176 130 -279 277q-108 -150 -264 -262q25 -41 74 -122l-10 -7q-59 61 -93 109q-51 -37 -158 -100l-7 5q71 61 134 137q-301 401 -301 814z" />
<glyph unicode="x" horiz-adv-x="1045" d="M17 1182q152 85 299 227q241 -168 282 -474q198 323 468 487l6 -9q-347 -349 -347 -660q0 -315 341 -513q-156 -87 -279 -222q-225 175 -257 506q-220 -365 -484 -519l-7 8q362 299 362 619q0 195 -107 331q-85 108 -277 219z" />
<glyph unicode="y" horiz-adv-x="916" d="M79 1420l7 6q221 -258 316 -550q158 223 158 495q67 0 167 18q152 26 165 27q-29 -176 -169 -366q-123 -167 -288 -290q31 -128 31 -272q0 -292 -119 -510q-90 135 -266 249q127 171 176 422q-31 -19 -95 -53l-8 8q44 42 114 111q4 34 4 70q0 246 -193 635z" />
<glyph unicode="z" horiz-adv-x="1319" d="M29 1280q183 96 428 96q295 0 628 -134q75 41 231 111l4 -7q-97 -55 -195 -120q78 -34 125 -57l-5 -9q-12 2 -84 19q-51 12 -85 12q-489 -349 -489 -792q0 -40 4 -81q205 65 378 65q113 0 202 -27q-93 -107 -193 -343q-200 87 -412 87q-214 0 -520 -96l-7 9 q148 138 370 234q-100 -26 -178 -52q0 598 769 1003q-39 2 -76 2q-311 0 -617 -200q-114 166 -278 280z" />
<glyph unicode="{" horiz-adv-x="1017" d="M158 444v94q195 26 270 119q56 71 56 206q0 31 -3.5 96.5t-3.5 98.5q0 162 81 244q110 110 400 129v-73q-162 -36 -226 -88q-60 -48 -72 -142q-5 -36 -5 -239q0 -212 -101 -296q-76 -63 -303 -104q256 -27 337 -137q71 -95 71 -360q0 -184 57 -259q64 -84 242 -104v-73 q-463 0 -478 354v173q0 196 -65 266q-62 67 -257 95z" />
<glyph unicode="|" horiz-adv-x="414" d="M272 -245v1692h91v-1692h-91z" />
<glyph unicode="}" horiz-adv-x="1017" d="M145 -371q209 23 265 143q34 71 34 305q0 208 97 301q91 88 311 111q-278 50 -347 150q-57 83 -57 380q0 179 -66 244q-54 55 -237 95v73q215 -14 319 -69q149 -79 158 -263q-1 8 -1 -229q0 -172 76 -244q68 -64 246 -88v-94q-180 -26 -244 -84q-77 -69 -77 -242 q0 -27 1.5 -78t1.5 -76q0 -120 -28 -190q-37 -93 -136 -150q-117 -68 -316 -68v73z" />
<glyph unicode="~" horiz-adv-x="680" d="M-15 1558q99 201 267 201q51 0 102 -19q6 -22 13 -67q84 -47 152 -47q99 0 186 100q-81 -204 -261 -204q-54 0 -106 20q-14 30 -17 67q-76 44 -139 44q-90 0 -197 -95z" />
<glyph unicode="&#xa1;" horiz-adv-x="456" d="M145 859q0 329 86 539q119 -142 283 -272q-205 -377 -205 -764q0 -45 3 -89h-11q-156 180 -156 586zM207 176l151 126l51 -184l-148 -140z" />
<glyph unicode="&#xa2;" horiz-adv-x="929" d="M83 769q0 175 120 285q117 108 294 108v136h61v-136q113 -2 206 -55l53 -300q-114 92 -223 87l-36 -1v-531q186 -74 369 -100l-6 -11q-20 -15 -71 -15q-146 0 -292 31v-258h-61v271q-182 54 -293 176q-121 134 -121 313zM275 670q0 -164 222 -283v500q-222 -41 -222 -217 z" />
<glyph unicode="&#xa3;" horiz-adv-x="1070" d="M77 45q121 79 261 128q67 149 123 374q-160 0 -277 24l-76 164q114 -36 320 -55q-188 117 -188 329q0 148 84 258q92 121 237 121q103 0 209.5 -59t160.5 -145l-87 -240q-38 94 -117.5 149.5t-180.5 55.5q-81 0 -131 -47t-50 -127q0 -138 127 -284q11 44 15 78h5 q6 -37 6 -91q264 0 435 38q-74 -50 -209 -101.5t-225 -63.5q0 -184 -36 -335q145 35 282 35q238 0 347 -89q-69 -48 -209 -144q-114 90 -404 85l-51 -1q-38 -110 -103 -198q-19 64 -84 141l29 42q-89 -11 -206 -49z" />
<glyph unicode="&#xa5;" horiz-adv-x="890" d="M101 1282q0 58 5 120q119 -95 263 -147q-20 -91 -20 -175q0 -257 183 -429q211 230 309 784h9q8 -62 8 -132q0 -365 -169 -733q-194 -424 -498 -534q-3 246 -57 404q219 23 380 189q-216 109 -313 261q-100 155 -100 392z" />
<glyph unicode="&#xa8;" horiz-adv-x="234" d="M-250 1717l134 114l46 -165l-134 -124zM106 1717l133 114l46 -165l-133 -124z" />
<glyph unicode="&#xad;" horiz-adv-x="544" d="M147 526q110 -49 234 -49q95 0 230 30q-163 -146 -382 -163z" />
<glyph unicode="&#xb1;" horiz-adv-x="1346" d="M156 1362l7 7q130 -50 244 -63q-5 30 -11 92h10q21 -28 44 -100q32 -2 60 -2q215 0 360 111q118 -133 266 -183q-151 -123 -380 -123q-135 0 -264 46q11 -67 11 -136q0 -130 -39 -233q231 45 346 45q210 0 346 -77q168 -96 168 -288q0 -214 -147 -342 q-140 -121 -360 -121q-149 0 -373 89l-248 340l11 3q324 -138 446 -138q97 0 177 48q93 55 93 145q0 113 -131 197q-118 75 -239 75q-19 0 -54 -3t-51 -4q-21 -43 -57 -76l-77 13l-24 38q-25 -1 -83 -16l-3 9q4 0 75 21q-23 34 -59 77q175 197 187 371q-140 71 -251 178z " />
<glyph unicode="&#xb4;" horiz-adv-x="188" d="M-108 1558q88 106 119 171q35 74 53 202q74 -70 136 -167q-102 -104 -136 -130q-73 -55 -172 -76z" />
<glyph unicode="&#xb5;" horiz-adv-x="1317" d="M64 1402l6 5q76 -75 143 -176q14 55 42 164q271 -243 411 -509q140 297 402 534q12 -46 39 -138q51 86 108 151l7 -7q-32 -74 -86 -224q23 -53 64 -124q-48 -26 -102 -63q-12 -82 -12 -159q0 -341 236 -591q-64 -40 -136 -119q-60 -69 -120 -137q-152 188 -152 543 q0 175 42 350q-121 -111 -196 -242q44 -144 44 -288q0 -201 -84 -396q-156 217 -156 478q0 109 27 221q-93 155 -224 252q93 -251 93 -494q0 -254 -104 -418q-138 147 -273 232q177 223 177 518q0 113 -27 233q-59 28 -92 29q17 41 48 124q-11 32 -125 251zM647 281 q0 -149 67 -261q25 51 25 135q0 157 -60 330q-32 -101 -32 -204z" />
<glyph unicode="&#xb7;" horiz-adv-x="303" d="M0 -502q102 172 102 354q0 23 -1 46q111 21 178 73v-13q3 -125 -78.5 -262.5t-193.5 -202.5z" />
<glyph unicode="&#xc0;" horiz-adv-x="1227" d="M70 295q158 95 262 267q-88 63 -121 89q-66 53 -108 104l3 7q86 -42 263 -115q78 176 78 462q0 116 -16 173q-39 30 -115 91l5 7q46 -14 105 -53q-19 59 -37 106l9 3q49 -65 68 -130q351 -203 552 -519q209 -331 209 -721q0 -45 -3 -90q-130 97 -336 171q37 118 35 207 l-2 50l-51 -1q-159 -1 -340 55q-69 -295 -273 -498q-67 174 -187 335zM132 1764q71 105 138 167q18 -128 53 -201q31 -65 119 -172q-99 21 -173 76q-30 23 -137 130zM492 1227q65 -250 65 -501q0 -60 -4 -115q70 -11 127 -11q50 0 146 11q48 -67 90 -113q-15 182 -148 399 q-121 198 -276 330z" />
<glyph unicode="&#xc1;" horiz-adv-x="1227" d="M70 295q158 95 262 267q-88 63 -121 89q-66 53 -108 104l3 7q86 -42 263 -115q78 176 78 462q0 116 -16 173q-39 30 -115 91l5 7q46 -14 105 -53q-19 59 -37 106l9 3q49 -65 68 -130q351 -203 552 -519q209 -331 209 -721q0 -45 -3 -90q-130 97 -336 171q37 118 35 207 l-2 50l-51 -1q-159 -1 -340 55q-69 -295 -273 -498q-67 174 -187 335zM334 1558q88 107 119 172q36 75 54 201q66 -63 135 -167q-101 -104 -135 -130q-73 -55 -173 -76zM492 1227q65 -250 65 -501q0 -60 -4 -115q70 -11 127 -11q50 0 146 11q48 -67 90 -113 q-15 182 -148 399q-121 198 -276 330z" />
<glyph unicode="&#xc2;" horiz-adv-x="1227" d="M70 295q158 95 262 267q-88 63 -121 89q-66 53 -108 104l3 7q86 -42 263 -115q78 176 78 462q0 116 -16 173q-39 30 -115 91l5 7q46 -14 105 -53q-19 59 -37 106l9 3q49 -65 68 -130q351 -203 552 -519q209 -331 209 -721q0 -45 -3 -90q-130 97 -336 171q37 118 35 207 l-2 50l-51 -1q-159 -1 -340 55q-69 -295 -273 -498q-67 174 -187 335zM152 1573q96 72 188 178h135q91 -115 188 -178l-8 -15q-127 26 -248 91q-127 -67 -245 -91zM492 1227q65 -250 65 -501q0 -60 -4 -115q70 -11 127 -11q50 0 146 11q48 -67 90 -113q-15 182 -148 399 q-121 198 -276 330z" />
<glyph unicode="&#xc3;" horiz-adv-x="1227" d="M70 295q158 95 262 267q-88 63 -121 89q-66 53 -108 104l3 7q86 -42 263 -115q78 176 78 462q0 116 -16 173q-39 30 -115 91l5 7q46 -14 105 -53q-19 59 -37 106l9 3q49 -65 68 -130q351 -203 552 -519q209 -331 209 -721q0 -45 -3 -90q-130 97 -336 171q37 118 35 207 l-2 50l-51 -1q-159 -1 -340 55q-69 -295 -273 -498q-67 174 -187 335zM90 1591q99 203 265 203q51 0 102 -19q14 -44 15 -68q84 -47 152 -47q97 0 185 98q-81 -201 -260 -201q-54 0 -107 20q-14 28 -16 67q-76 43 -139 43q-90 0 -197 -96zM492 1227q65 -250 65 -501 q0 -60 -4 -115q70 -11 127 -11q50 0 146 11q48 -67 90 -113q-15 182 -148 399q-121 198 -276 330z" />
<glyph unicode="&#xc4;" horiz-adv-x="1227" d="M70 295q158 95 262 267q-88 63 -121 89q-66 53 -108 104l3 7q86 -42 263 -115q78 176 78 462q0 116 -16 173q-39 30 -115 91l5 7q46 -14 105 -53q-19 59 -37 106l9 3q49 -65 68 -130q351 -203 552 -519q209 -331 209 -721q0 -45 -3 -90q-130 97 -336 171q37 118 35 207 l-2 50l-51 -1q-159 -1 -340 55q-69 -295 -273 -498q-67 174 -187 335zM136 1738l134 115l46 -166l-132 -123zM492 1227q65 -250 65 -501q0 -60 -4 -115q70 -11 127 -11q50 0 146 11q48 -67 90 -113q-15 182 -148 399q-121 198 -276 330zM492 1738l132 115l46 -166l-132 -123 z" />
<glyph unicode="&#xc5;" horiz-adv-x="1227" d="M70 295q158 95 262 267q-88 63 -121 89q-66 53 -108 104l3 7q86 -42 263 -115q78 176 78 462q0 116 -16 173q-39 30 -115 91l5 7q46 -14 105 -53q-19 59 -37 106l9 3q49 -65 68 -130q351 -203 552 -519q209 -331 209 -721q0 -45 -3 -90q-130 97 -336 171q37 118 35 207 l-2 50l-51 -1q-159 -1 -340 55q-69 -295 -273 -498q-67 174 -187 335zM207 1711q0 61 43.5 107t104.5 46q68 0 114.5 -42.5t46.5 -110.5q0 -60 -43.5 -105.5t-104.5 -45.5q-68 0 -113 42q-48 42 -48 109zM275 1711q0 -34 26 -59.5t61 -25.5q34 0 61 25.5t27 59.5t-27 60 t-61 26q-35 0 -61 -25.5t-26 -60.5zM492 1227q65 -250 65 -501q0 -60 -4 -115q70 -11 127 -11q50 0 146 11q48 -67 90 -113q-15 182 -148 399q-121 198 -276 330z" />
<glyph unicode="&#xc6;" horiz-adv-x="2072" d="M68 295q205 97 378 267q-57 60 -80 90q-43 54 -61 103l7 7q69 -43 213 -115q94 108 204 304q119 212 141 331q-26 30 -75 91l9 7q39 -14 79 -53q10 59 15 106l7 3q24 -68 9 -130q126 -102 198 -215q39 69 87 142q-61 40 -171 133l4 9q121 -49 222 -69q72 74 76 78 q51 49 85 63l9 -5q-28 -37 -57 -73q-36 -50 -44 -78q106 -20 203 -20q176 0 389 67q70 -225 139 -360h-36q-365 -4 -746 208q-40 -123 -40 -231q204 -154 460 -154q29 0 59 3q78 -148 134 -228l-48 -1q-293 -9 -585 220q53 -211 220 -353q173 -147 387 -147q118 0 256 58 l7 -11q-71 -90 -185 -197q-100 -91 -201 -181q-15 -3 -32 -3q-224 0 -511 284l-2 2q-41 -137 -110 -271q-64 69 -120 103q-39 24 -142 68q98 135 147 257l-52 -1q-154 -1 -314 55q-206 -299 -495 -498q6 89 6 117q0 72 -43 218zM688 611q69 -11 126 -11q48 0 148 11 q12 -38 40 -113q43 116 43 269q0 276 -136 460q-75 -371 -221 -616z" />
<glyph unicode="&#xc7;" horiz-adv-x="1425" d="M143 708q0 281 177 479q185 205 466 205q170 0 380 -101v40q103 13 178 71q-5 -96 -46 -213q24 -28 64 -89l-6 -7l-77 62q-106 -171 -207 -229l-7 5q85 143 101 300q-136 71 -290 71q-194 0 -346.5 -151t-149.5 -343v-14q2 -95 81 -216q74 -114 161 -173q131 -87 335 -87 q263 0 422 180l7 -7l-327 -467q-93 -21 -187 -21q-307 0 -516 200q-213 202 -213 505zM538 -502q102 172 102 354q0 23 -1 46q111 21 178 73v-16q3 -124 -79 -262q-80 -134 -191 -200z" />
<glyph unicode="&#xc8;" horiz-adv-x="1195" d="M79 1169l5 9q37 -45 125 -125q33 69 105 180q-61 40 -171 133l4 9q117 -48 220 -69q39 39 77 78q49 49 86 63l8 -5q-28 -37 -56 -73q-36 -49 -43 -78q104 -20 201 -20q176 0 388 67q74 -229 141 -360h-36q-367 -4 -748 208q-40 -123 -40 -231q207 -153 462 -153 q29 0 59 2q82 -155 134 -228l-48 -1q-292 -8 -587 220q53 -210 221 -352q174 -148 388 -148q116 0 256 58l7 -11q-71 -90 -185 -197q-100 -91 -200 -181q-18 -3 -33 -3l-15 1q-128 3 -276 92q-138 82 -221 191q-152 198 -152 482q0 120 29 251q-84 100 -105 191zM363 1764 q70 104 136 167q19 -127 55 -201q32 -66 120 -172q-100 21 -174 76q-30 23 -137 130z" />
<glyph unicode="&#xc9;" horiz-adv-x="1195" d="M79 1169l5 9q37 -45 125 -125q33 69 105 180q-61 40 -171 133l4 9q117 -48 220 -69q39 39 77 78q49 49 86 63l8 -5q-28 -37 -56 -73q-36 -49 -43 -78q104 -20 201 -20q176 0 388 67q74 -229 141 -360h-36q-367 -4 -748 208q-40 -123 -40 -231q207 -153 462 -153 q29 0 59 2q82 -155 134 -228l-48 -1q-292 -8 -587 220q53 -210 221 -352q174 -148 388 -148q116 0 256 58l7 -11q-71 -90 -185 -197q-100 -91 -200 -181q-18 -3 -33 -3l-15 1q-128 3 -276 92q-138 82 -221 191q-152 198 -152 482q0 120 29 251q-84 100 -105 191zM540 1558 q88 106 119 171q35 74 53 202q67 -62 138 -167q-107 -107 -137 -130q-74 -55 -173 -76z" />
<glyph unicode="&#xca;" horiz-adv-x="1195" d="M79 1169l5 9q37 -45 125 -125q33 69 105 180q-61 40 -171 133l4 9q117 -48 220 -69q39 39 77 78q49 49 86 63l8 -5q-28 -37 -56 -73q-36 -49 -43 -78q104 -20 201 -20q176 0 388 67q74 -229 141 -360h-36q-367 -4 -748 208q-40 -123 -40 -231q207 -153 462 -153 q29 0 59 2q82 -155 134 -228l-48 -1q-292 -8 -587 220q53 -210 221 -352q174 -148 388 -148q116 0 256 58l7 -11q-71 -90 -185 -197q-100 -91 -200 -181q-18 -3 -33 -3l-15 1q-128 3 -276 92q-138 82 -221 191q-152 198 -152 482q0 120 29 251q-84 100 -105 191zM308 1573 q96 72 188 178h137q89 -115 186 -178l-8 -15q-127 26 -247 91q-128 -67 -246 -91z" />
<glyph unicode="&#xcb;" horiz-adv-x="1195" d="M79 1169l5 9q37 -45 125 -125q33 69 105 180q-61 40 -171 133l4 9q117 -48 220 -69q39 39 77 78q49 49 86 63l8 -5q-28 -37 -56 -73q-36 -49 -43 -78q104 -20 201 -20q176 0 388 67q74 -229 141 -360h-36q-367 -4 -748 208q-40 -123 -40 -231q207 -153 462 -153 q29 0 59 2q82 -155 134 -228l-48 -1q-292 -8 -587 220q53 -210 221 -352q174 -148 388 -148q116 0 256 58l7 -11q-71 -90 -185 -197q-100 -91 -200 -181q-18 -3 -33 -3l-15 1q-128 3 -276 92q-138 82 -221 191q-152 198 -152 482q0 120 29 251q-84 100 -105 191zM393 1735 l134 112l46 -163l-132 -124zM749 1735l132 112l46 -163l-132 -124z" />
<glyph unicode="&#xcc;" horiz-adv-x="443" d="M-231 1760q70 105 137 167q18 -127 54 -202q31 -65 119 -172q-100 21 -173 77q-30 23 -137 130zM44 1431l11 4q398 -459 398 -991q0 -273 -113 -468q-69 142 -276 255q181 224 181 519q0 311 -201 681z" />
<glyph unicode="&#xcd;" horiz-adv-x="443" d="M-4 1560q105 93 146 150q49 68 89 188q57 -76 105 -189q-121 -85 -157 -103q-81 -42 -183 -46zM44 1431l11 4q398 -459 398 -991q0 -273 -113 -468q-69 142 -276 255q181 224 181 519q0 311 -201 681z" />
<glyph unicode="&#xce;" horiz-adv-x="443" d="M-204 1573q96 72 187 178h138q89 -115 186 -178l-8 -15q-127 26 -248 91q-127 -67 -246 -91zM44 1431l11 4q398 -459 398 -991q0 -273 -113 -468q-69 142 -276 255q181 224 181 519q0 311 -201 681z" />
<glyph unicode="&#xcf;" horiz-adv-x="443" d="M-207 1729l134 113l45 -165l-134 -124zM44 1431l11 4q398 -459 398 -991q0 -273 -113 -468q-69 142 -276 255q181 224 181 519q0 311 -201 681zM149 1729l132 113l46 -165l-132 -124z" />
<glyph unicode="&#xd1;" horiz-adv-x="1136" d="M143 1073q48 67 143 236l74 -53q70 121 136 206l11 -6q-40 -74 -109 -227q309 -243 564 -778q8 68 8 133q0 368 -252 587q151 126 248 258q155 -193 155 -557q0 -280 -100 -554q48 -104 134 -318l-10 -5q-6 9 -163 221q-49 -105 -65 -135q-39 -76 -78 -128l-11 2 q67 163 106 325q-351 471 -600 662q-6 -56 -6 -111q0 -300 226 -606q-168 -137 -251 -249q-145 212 -145 531q0 245 90 495q-15 11 -105 71zM356 1598q99 201 265 201q51 0 102 -19q7 -22 15 -67q84 -47 152 -47q97 0 184 98q-81 -202 -260 -202q-55 0 -107 20 q-14 38 -17 67q-76 44 -139 44q-89 0 -195 -95z" />
<glyph unicode="&#xd2;" d="M154 657q0 258 163 481q159 216 406 313l8 -9q-106 -58 -178 -140q238 53 414 105q241 -24 405 -229q157 -196 157 -440q0 -293 -232 -531q-224 -230 -522 -272l-6 9q148 55 268 141l-328 -121q-245 43 -402 246q-153 197 -153 447zM380 844q0 -277 229 -477 q211 -185 500 -216q159 163 159 395q0 308 -228 499q-204 171 -528 206q-132 -185 -132 -407zM541 1764q71 105 138 167q18 -128 53 -201q31 -65 120 -172q-100 21 -173 76q-31 23 -138 130z" />
<glyph unicode="&#xd3;" d="M154 657q0 258 163 481q159 216 406 313l8 -9q-106 -58 -178 -140q238 53 414 105q241 -24 405 -229q157 -196 157 -440q0 -293 -232 -531q-224 -230 -522 -272l-6 9q148 55 268 141l-328 -121q-245 43 -402 246q-153 197 -153 447zM380 844q0 -277 229 -477 q211 -185 500 -216q159 163 159 395q0 308 -228 499q-204 171 -528 206q-132 -185 -132 -407zM826 1564q105 94 145 150q50 68 90 188q57 -76 105 -189q-122 -85 -157 -103q-81 -42 -183 -46z" />
<glyph unicode="&#xd4;" d="M154 657q0 258 163 481q159 216 406 313l8 -9q-106 -58 -178 -140q238 53 414 105q241 -24 405 -229q157 -196 157 -440q0 -293 -232 -531q-224 -230 -522 -272l-6 9q148 55 268 141l-328 -121q-245 43 -402 246q-153 197 -153 447zM380 844q0 -277 229 -477 q211 -185 500 -216q159 163 159 395q0 308 -228 499q-204 171 -528 206q-132 -185 -132 -407zM586 1571q96 72 187 178h137q89 -115 186 -178l-8 -15q-127 26 -247 91q-128 -66 -246 -91z" />
<glyph unicode="&#xd5;" d="M154 657q0 258 163 481q159 216 406 313l8 -9q-106 -58 -178 -140q238 53 414 105q241 -24 405 -229q157 -196 157 -440q0 -293 -232 -531q-224 -230 -522 -272l-6 9q148 55 268 141l-328 -121q-245 43 -402 246q-153 197 -153 447zM380 844q0 -277 229 -477 q211 -185 500 -216q159 163 159 395q0 308 -228 499q-204 171 -528 206q-132 -185 -132 -407zM499 1593q99 203 267 203q51 0 102 -19q6 -23 13 -68q84 -47 153 -47q98 0 185 98q-81 -201 -260 -201q-55 0 -107 19q-14 38 -17 68q-76 43 -138 43q-91 0 -198 -96z" />
<glyph unicode="&#xd6;" d="M154 657q0 258 163 481q159 216 406 313l8 -9q-106 -58 -178 -140q238 53 414 105q241 -24 405 -229q157 -196 157 -440q0 -293 -232 -531q-224 -230 -522 -272l-6 9q148 55 268 141l-328 -121q-245 43 -402 246q-153 197 -153 447zM380 844q0 -277 229 -477 q211 -185 500 -216q159 163 159 395q0 308 -228 499q-204 171 -528 206q-132 -185 -132 -407zM554 1704l132 113l46 -166l-132 -124zM910 1704l133 113l45 -166l-132 -124z" />
<glyph unicode="&#xd8;" d="M154 657q0 258 163 481q159 217 406 313l8 -9q-107 -58 -178 -140q239 53 414 105q108 -13 204 -61q135 136 239 216q-81 -96 -191 -246q141 -93 225.5 -251t84.5 -328q0 -292 -232 -530q-224 -230 -522 -272l-6 9q148 55 268 141l-328 -121q-84 15 -162 52 q-22 -74 -33 -140q-86 -20 -255 -71q70 180 130 317q-235 211 -235 535zM380 844q0 -225 160 -409q198 370 424 667q-188 121 -452 149q-132 -185 -132 -407zM655 325q194 -145 454 -174q159 163 159 395q0 311 -229 503q-235 -378 -384 -724z" />
<glyph unicode="&#xd9;" horiz-adv-x="1026" d="M86 167q103 65 257 86q-198 347 -198 690q0 239 97 448q101 -126 270 -242q-165 -230 -165 -520q0 -176 62 -371h107q361 343 361 869q0 122 -18 255l11 5q123 -272 123 -611q0 -351 -121 -603q138 -60 209 -106l-5 -9q-134 41 -237 55q-54 -91 -121 -133q-32 48 -98 142 q-46 -1 -146 -26l66 -114l-8 -4q-29 36 -84 109q-80 -26 -163 -71q-92 92 -199 151zM248 1733q62 97 136 167q17 -128 53 -202q31 -66 119 -172q-100 21 -173 76q-39 30 -135 131z" />
<glyph unicode="&#xda;" horiz-adv-x="1026" d="M86 167q103 65 257 86q-198 347 -198 690q0 239 97 448q101 -126 270 -242q-165 -230 -165 -520q0 -176 62 -371h107q361 343 361 869q0 122 -18 255l11 5q123 -272 123 -611q0 -351 -121 -603q138 -60 209 -106l-5 -9q-134 41 -237 55q-54 -91 -121 -133q-32 48 -98 142 q-46 -1 -146 -26l66 -114l-8 -4q-29 36 -84 109q-80 -26 -163 -71q-92 92 -199 151zM479 1531q105 94 145 150q51 70 90 188q62 -80 105 -187q-124 -87 -157 -104q-81 -42 -183 -47z" />
<glyph unicode="&#xdb;" horiz-adv-x="1026" d="M86 167q103 65 257 86q-198 347 -198 690q0 239 97 448q101 -126 270 -242q-165 -230 -165 -520q0 -176 62 -371h107q361 343 361 869q0 122 -18 255l11 5q123 -272 123 -611q0 -351 -121 -603q138 -60 209 -106l-5 -9q-134 41 -237 55q-54 -91 -121 -133q-32 48 -98 142 q-46 -1 -146 -26l66 -114l-8 -4q-29 36 -84 109q-80 -26 -163 -71q-92 92 -199 151zM301 1540q96 70 187 177h136q89 -114 187 -177l-7 -16q-128 26 -248 91q-127 -67 -248 -91z" />
<glyph unicode="&#xdc;" horiz-adv-x="1026" d="M86 167q103 65 257 86q-198 347 -198 690q0 239 97 448q101 -126 270 -242q-165 -230 -165 -520q0 -176 62 -371h107q361 343 361 869q0 122 -18 255l11 5q123 -272 123 -611q0 -351 -121 -603q138 -60 209 -106l-5 -9q-134 41 -237 55q-54 -91 -121 -133q-32 48 -98 142 q-46 -1 -146 -26l66 -114l-8 -4q-29 36 -84 109q-80 -26 -163 -71q-92 92 -199 151zM318 1706l132 112l46 -165l-133 -124zM674 1706l132 112l46 -165l-132 -124z" />
<glyph unicode="&#xdf;" horiz-adv-x="2044" d="M78 473l7 7q211 -205 487 -205q150 0 238 62q101 71 101 212q0 106 -125 215q-172 -108 -244 -186q-182 44 -296 136q-141 114 -141 278q0 206 166 319q145 98 363 98q289 0 453 -174l-5 -9q-231 114 -403 114q-126 0 -230 -52q-129 -65 -129 -177q0 -216 362 -267 l-61 42l7 7q43 -13 133 -57q44 2 134 4l3 -11l-66 -34q287 -192 287 -428q0 -175 -136 -284q-127 -101 -309 -101q-173 0 -332 69q-113 152 -264 422zM1133 473l7 7q211 -205 487 -205q149 0 238 62q101 71 101 212q0 106 -125 215q-173 -108 -244 -186q-182 44 -296 136 q-141 114 -141 278q0 206 166 319q145 98 362 98q290 0 454 -174l-5 -9q-231 114 -403 114q-126 0 -230 -52q-129 -65 -129 -177q0 -216 361 -267l-60 42l7 7q43 -13 132 -57q45 2 134 4l4 -11l-66 -34q287 -192 287 -428q0 -175 -137 -284q-126 -101 -308 -101 q-174 0 -332 69q-113 152 -264 422z" />
<glyph unicode="&#xe0;" horiz-adv-x="1227" d="M70 295q158 95 262 267q-88 63 -121 89q-66 53 -108 104l3 7q86 -42 263 -115q78 176 78 462q0 116 -16 173q-39 30 -115 91l5 7q46 -14 105 -53q-19 59 -37 106l9 3q49 -65 68 -130q351 -203 552 -519q209 -331 209 -721q0 -45 -3 -90q-130 97 -336 171q37 118 35 207 l-2 50l-51 -1q-159 -1 -340 55q-69 -295 -273 -498q-67 174 -187 335zM132 1764q71 105 138 167q18 -128 53 -201q31 -65 119 -172q-99 21 -173 76q-30 23 -137 130zM492 1227q65 -250 65 -501q0 -60 -4 -115q70 -11 127 -11q50 0 146 11q48 -67 90 -113q-15 182 -148 399 q-121 198 -276 330z" />
<glyph unicode="&#xe1;" horiz-adv-x="1227" d="M70 295q158 95 262 267q-88 63 -121 89q-66 53 -108 104l3 7q86 -42 263 -115q78 176 78 462q0 116 -16 173q-39 30 -115 91l5 7q46 -14 105 -53q-19 59 -37 106l9 3q49 -65 68 -130q351 -203 552 -519q209 -331 209 -721q0 -45 -3 -90q-130 97 -336 171q37 118 35 207 l-2 50l-51 -1q-159 -1 -340 55q-69 -295 -273 -498q-67 174 -187 335zM334 1558q88 107 119 172q36 75 54 201q66 -63 135 -167q-101 -104 -135 -130q-73 -55 -173 -76zM492 1227q65 -250 65 -501q0 -60 -4 -115q70 -11 127 -11q50 0 146 11q48 -67 90 -113 q-15 182 -148 399q-121 198 -276 330z" />
<glyph unicode="&#xe2;" horiz-adv-x="1227" d="M70 295q158 95 262 267q-88 63 -121 89q-66 53 -108 104l3 7q86 -42 263 -115q78 176 78 462q0 116 -16 173q-39 30 -115 91l5 7q46 -14 105 -53q-19 59 -37 106l9 3q49 -65 68 -130q351 -203 552 -519q209 -331 209 -721q0 -45 -3 -90q-130 97 -336 171q37 118 35 207 l-2 50l-51 -1q-159 -1 -340 55q-69 -295 -273 -498q-67 174 -187 335zM152 1573q96 72 188 178h135q91 -115 188 -178l-8 -15q-127 26 -248 91q-127 -67 -245 -91zM492 1227q65 -250 65 -501q0 -60 -4 -115q70 -11 127 -11q50 0 146 11q48 -67 90 -113q-15 182 -148 399 q-121 198 -276 330z" />
<glyph unicode="&#xe3;" horiz-adv-x="1227" d="M70 295q158 95 262 267q-88 63 -121 89q-66 53 -108 104l3 7q86 -42 263 -115q78 176 78 462q0 116 -16 173q-39 30 -115 91l5 7q46 -14 105 -53q-19 59 -37 106l9 3q49 -65 68 -130q351 -203 552 -519q209 -331 209 -721q0 -45 -3 -90q-130 97 -336 171q37 118 35 207 l-2 50l-51 -1q-159 -1 -340 55q-69 -295 -273 -498q-67 174 -187 335zM90 1591q99 203 265 203q51 0 102 -19q14 -44 15 -68q84 -47 152 -47q97 0 185 98q-81 -201 -260 -201q-54 0 -107 20q-14 28 -16 67q-76 43 -139 43q-90 0 -197 -96zM492 1227q65 -250 65 -501 q0 -60 -4 -115q70 -11 127 -11q50 0 146 11q48 -67 90 -113q-15 182 -148 399q-121 198 -276 330z" />
<glyph unicode="&#xe4;" horiz-adv-x="1227" d="M70 295q158 95 262 267q-88 63 -121 89q-66 53 -108 104l3 7q86 -42 263 -115q78 176 78 462q0 116 -16 173q-39 30 -115 91l5 7q46 -14 105 -53q-19 59 -37 106l9 3q49 -65 68 -130q351 -203 552 -519q209 -331 209 -721q0 -45 -3 -90q-130 97 -336 171q37 118 35 207 l-2 50l-51 -1q-159 -1 -340 55q-69 -295 -273 -498q-67 174 -187 335zM136 1738l134 115l46 -166l-132 -123zM492 1227q65 -250 65 -501q0 -60 -4 -115q70 -11 127 -11q50 0 146 11q48 -67 90 -113q-15 182 -148 399q-121 198 -276 330zM492 1738l132 115l46 -166l-132 -123 z" />
<glyph unicode="&#xe5;" horiz-adv-x="1227" d="M70 295q158 95 262 267q-88 63 -121 89q-66 53 -108 104l3 7q86 -42 263 -115q78 176 78 462q0 116 -16 173q-39 30 -115 91l5 7q46 -14 105 -53q-19 59 -37 106l9 3q49 -65 68 -130q351 -203 552 -519q209 -331 209 -721q0 -45 -3 -90q-130 97 -336 171q37 118 35 207 l-2 50l-51 -1q-159 -1 -340 55q-69 -295 -273 -498q-67 174 -187 335zM268 1711q0 61 43 107t105 46q68 0 114 -42.5t46 -110.5q0 -60 -43.5 -105.5t-104.5 -45.5q-67 0 -113.5 42t-46.5 109zM336 1711q0 -34 25.5 -59.5t60.5 -25.5t61.5 25.5t26.5 59.5t-26.5 60t-61.5 26 t-60.5 -25.5t-25.5 -60.5zM492 1227q65 -250 65 -501q0 -60 -4 -115q70 -11 127 -11q50 0 146 11q48 -67 90 -113q-15 182 -148 399q-121 198 -276 330z" />
<glyph unicode="&#xe6;" horiz-adv-x="2072" d="M68 295q205 97 378 267q-57 60 -80 90q-43 54 -61 103l7 7q69 -43 213 -115q94 108 204 304q119 212 141 331q-26 30 -75 91l9 7q39 -14 79 -53q10 59 15 106l7 3q24 -68 9 -130q126 -102 198 -215q39 69 87 142q-61 40 -171 133l4 9q121 -49 222 -69q72 74 76 78 q51 49 85 63l9 -5q-28 -37 -57 -73q-36 -50 -44 -78q106 -20 203 -20q176 0 389 67q70 -225 139 -360h-36q-365 -4 -746 208q-40 -123 -40 -231q204 -154 460 -154q29 0 59 3q78 -148 134 -228l-48 -1q-293 -9 -585 220q53 -211 220 -353q173 -147 387 -147q118 0 256 58 l7 -11q-71 -90 -185 -197q-100 -91 -201 -181q-15 -3 -32 -3q-224 0 -511 284l-2 2q-41 -137 -110 -271q-64 69 -120 103q-39 24 -142 68q98 135 147 257l-52 -1q-154 -1 -314 55q-206 -299 -495 -498q6 89 6 117q0 72 -43 218zM688 611q69 -11 126 -11q48 0 148 11 q12 -38 40 -113q43 116 43 269q0 276 -136 460q-75 -371 -221 -616z" />
<glyph unicode="&#xe7;" horiz-adv-x="1425" d="M143 708q0 281 177 479q185 205 466 205q170 0 380 -101v40q103 13 178 71q-5 -96 -46 -213q24 -28 64 -89l-6 -7l-77 62q-106 -171 -207 -229l-7 5q85 143 101 300q-136 71 -290 71q-194 0 -346.5 -151t-149.5 -343v-14q2 -95 81 -216q74 -114 161 -173q131 -87 335 -87 q263 0 422 180l7 -7l-327 -467q-93 -21 -187 -21q-307 0 -516 200q-213 202 -213 505zM538 -502q102 172 102 354q0 23 -1 46q111 21 178 73v-16q3 -124 -79 -262q-80 -134 -191 -200z" />
<glyph unicode="&#xe8;" horiz-adv-x="1195" d="M79 1169l5 9q37 -45 125 -125q33 69 105 180q-61 40 -171 133l4 9q117 -48 220 -69q39 39 77 78q49 49 86 63l8 -5q-28 -37 -56 -73q-36 -49 -43 -78q104 -20 201 -20q176 0 388 67q74 -229 141 -360h-36q-367 -4 -748 208q-40 -123 -40 -231q207 -153 462 -153 q29 0 59 2q82 -155 134 -228l-48 -1q-292 -8 -587 220q53 -210 221 -352q174 -148 388 -148q116 0 256 58l7 -11q-71 -90 -185 -197q-100 -91 -200 -181q-18 -3 -33 -3l-15 1q-128 3 -276 92q-138 82 -221 191q-152 198 -152 482q0 120 29 251q-84 100 -105 191zM444 1764 q70 104 136 167q18 -128 53 -201q31 -65 120 -172q-100 21 -173 76q-34 25 -136 130z" />
<glyph unicode="&#xe9;" horiz-adv-x="1195" d="M79 1169l5 9q37 -45 125 -125q33 69 105 180q-61 40 -171 133l4 9q117 -48 220 -69q39 39 77 78q49 49 86 63l8 -5q-28 -37 -56 -73q-36 -49 -43 -78q104 -20 201 -20q176 0 388 67q74 -229 141 -360h-36q-367 -4 -748 208q-40 -123 -40 -231q207 -153 462 -153 q29 0 59 2q82 -155 134 -228l-48 -1q-292 -8 -587 220q53 -210 221 -352q174 -148 388 -148q116 0 256 58l7 -11q-71 -90 -185 -197q-100 -91 -200 -181q-18 -3 -33 -3l-15 1q-128 3 -276 92q-138 82 -221 191q-152 198 -152 482q0 120 29 251q-84 100 -105 191zM620 1558 q89 106 120 171q35 74 53 202q67 -62 138 -167q-107 -107 -137 -130q-74 -55 -174 -76z" />
<glyph unicode="&#xea;" horiz-adv-x="1195" d="M79 1169l5 9q37 -45 125 -125q33 69 105 180q-61 40 -171 133l4 9q117 -48 220 -69q39 39 77 78q49 49 86 63l8 -5q-28 -37 -56 -73q-36 -49 -43 -78q104 -20 201 -20q176 0 388 67q74 -229 141 -360h-36q-367 -4 -748 208q-40 -123 -40 -231q207 -153 462 -153 q29 0 59 2q82 -155 134 -228l-48 -1q-292 -8 -587 220q53 -210 221 -352q174 -148 388 -148q116 0 256 58l7 -11q-71 -90 -185 -197q-100 -91 -200 -181q-18 -3 -33 -3l-15 1q-128 3 -276 92q-138 82 -221 191q-152 198 -152 482q0 120 29 251q-84 100 -105 191zM409 1573 q96 72 188 178h135q91 -115 188 -178l-8 -15q-127 26 -248 91q-127 -67 -245 -91z" />
<glyph unicode="&#xeb;" horiz-adv-x="1195" d="M79 1169l5 9q37 -45 125 -125q33 69 105 180q-61 40 -171 133l4 9q117 -48 220 -69q39 39 77 78q49 49 86 63l8 -5q-28 -37 -56 -73q-36 -49 -43 -78q104 -20 201 -20q176 0 388 67q74 -229 141 -360h-36q-367 -4 -748 208q-40 -123 -40 -231q207 -153 462 -153 q29 0 59 2q82 -155 134 -228l-48 -1q-292 -8 -587 220q53 -210 221 -352q174 -148 388 -148q116 0 256 58l7 -11q-71 -90 -185 -197q-100 -91 -200 -181q-18 -3 -33 -3l-15 1q-128 3 -276 92q-138 82 -221 191q-152 198 -152 482q0 120 29 251q-84 100 -105 191zM393 1735 l134 112l46 -163l-132 -124zM749 1735l132 112l46 -163l-132 -124z" />
<glyph unicode="&#xec;" horiz-adv-x="443" d="M-231 1760q70 105 137 167q18 -127 54 -202q31 -65 119 -172q-100 21 -173 77q-30 23 -137 130zM44 1431l11 4q398 -459 398 -991q0 -273 -113 -468q-69 142 -276 255q181 224 181 519q0 311 -201 681z" />
<glyph unicode="&#xed;" horiz-adv-x="443" d="M-4 1560q105 93 146 150q49 68 89 188q57 -76 105 -189q-121 -85 -157 -103q-81 -42 -183 -46zM44 1431l11 4q398 -459 398 -991q0 -273 -113 -468q-69 142 -276 255q181 224 181 519q0 311 -201 681z" />
<glyph unicode="&#xee;" horiz-adv-x="443" d="M-204 1573q96 72 187 178h138q89 -115 186 -178l-8 -15q-127 26 -248 91q-127 -67 -246 -91zM44 1431l11 4q398 -459 398 -991q0 -273 -113 -468q-69 142 -276 255q181 224 181 519q0 311 -201 681z" />
<glyph unicode="&#xef;" horiz-adv-x="443" d="M-207 1729l134 113l45 -165l-134 -124zM44 1431l11 4q398 -459 398 -991q0 -273 -113 -468q-69 142 -276 255q181 224 181 519q0 311 -201 681zM149 1729l132 113l46 -165l-132 -124z" />
<glyph unicode="&#xf1;" horiz-adv-x="1136" d="M143 1073q48 67 143 236l74 -53q70 121 136 206l11 -6q-40 -74 -109 -227q309 -243 564 -778q8 68 8 133q0 368 -252 587q151 126 248 258q155 -193 155 -557q0 -280 -100 -554q48 -104 134 -318l-10 -5q-6 9 -163 221q-49 -105 -65 -135q-39 -76 -78 -128l-11 2 q67 163 106 325q-351 471 -600 662q-6 -56 -6 -111q0 -300 226 -606q-168 -137 -251 -249q-145 212 -145 531q0 245 90 495q-15 11 -105 71zM356 1598q99 201 265 201q51 0 102 -19q7 -22 15 -67q84 -47 152 -47q97 0 184 98q-81 -202 -260 -202q-55 0 -107 20 q-14 38 -17 67q-76 44 -139 44q-89 0 -195 -95z" />
<glyph unicode="&#xf2;" d="M154 657q0 258 163 481q159 216 406 313l8 -9q-106 -58 -178 -140q238 53 414 105q241 -24 405 -229q157 -196 157 -440q0 -293 -232 -531q-224 -230 -522 -272l-6 9q148 55 268 141l-328 -121q-245 43 -402 246q-153 197 -153 447zM380 844q0 -277 229 -477 q211 -185 500 -216q159 163 159 395q0 308 -228 499q-204 171 -528 206q-132 -185 -132 -407zM602 1764q71 105 138 167q17 -128 53 -201q31 -65 119 -172q-100 21 -173 76q-30 23 -137 130z" />
<glyph unicode="&#xf3;" d="M154 657q0 258 163 481q159 216 406 313l8 -9q-106 -58 -178 -140q238 53 414 105q241 -24 405 -229q157 -196 157 -440q0 -293 -232 -531q-224 -230 -522 -272l-6 9q148 55 268 141l-328 -121q-245 43 -402 246q-153 197 -153 447zM380 844q0 -277 229 -477 q211 -185 500 -216q159 163 159 395q0 308 -228 499q-204 171 -528 206q-132 -185 -132 -407zM765 1564q105 93 146 149q49 68 89 189q57 -76 105 -189q-121 -85 -157 -103q-81 -42 -183 -46z" />
<glyph unicode="&#xf4;" d="M154 657q0 258 163 481q159 216 406 313l8 -9q-106 -58 -178 -140q238 53 414 105q241 -24 405 -229q157 -196 157 -440q0 -293 -232 -531q-224 -230 -522 -272l-6 9q148 55 268 141l-328 -121q-245 43 -402 246q-153 197 -153 447zM380 844q0 -277 229 -477 q211 -185 500 -216q159 163 159 395q0 308 -228 499q-204 171 -528 206q-132 -185 -132 -407zM586 1571q96 72 187 178h137q89 -115 186 -178l-8 -15q-127 26 -247 91q-128 -66 -246 -91z" />
<glyph unicode="&#xf5;" d="M154 657q0 258 163 481q159 216 406 313l8 -9q-106 -58 -178 -140q238 53 414 105q241 -24 405 -229q157 -196 157 -440q0 -293 -232 -531q-224 -230 -522 -272l-6 9q148 55 268 141l-328 -121q-245 43 -402 246q-153 197 -153 447zM380 844q0 -277 229 -477 q211 -185 500 -216q159 163 159 395q0 308 -228 499q-204 171 -528 206q-132 -185 -132 -407zM499 1593q99 203 267 203q51 0 102 -19q6 -23 13 -68q84 -47 153 -47q98 0 185 98q-81 -201 -260 -201q-55 0 -107 19q-14 38 -17 68q-76 43 -138 43q-91 0 -198 -96z" />
<glyph unicode="&#xf6;" d="M154 657q0 258 163 481q159 216 406 313l8 -9q-106 -58 -178 -140q238 53 414 105q241 -24 405 -229q157 -196 157 -440q0 -293 -232 -531q-224 -230 -522 -272l-6 9q148 55 268 141l-328 -121q-245 43 -402 246q-153 197 -153 447zM380 844q0 -277 229 -477 q211 -185 500 -216q159 163 159 395q0 308 -228 499q-204 171 -528 206q-132 -185 -132 -407zM554 1704l132 113l46 -166l-132 -124zM910 1704l133 113l45 -166l-132 -124z" />
<glyph unicode="&#xf8;" d="M154 657q0 258 163 481q159 217 406 313l8 -9q-107 -58 -178 -140q239 53 414 105q108 -13 204 -61q135 136 239 216q-81 -96 -191 -246q141 -93 225.5 -251t84.5 -328q0 -292 -232 -530q-224 -230 -522 -272l-6 9q148 55 268 141l-328 -121q-84 15 -162 52 q-22 -74 -33 -140q-86 -20 -255 -71q70 180 130 317q-235 211 -235 535zM380 844q0 -225 160 -409q198 370 424 667q-188 121 -452 149q-132 -185 -132 -407zM655 325q194 -145 454 -174q159 163 159 395q0 311 -229 503q-235 -378 -384 -724z" />
<glyph unicode="&#xf9;" horiz-adv-x="1026" d="M86 167q103 65 257 86q-198 347 -198 690q0 239 97 448q101 -126 270 -242q-165 -230 -165 -520q0 -176 62 -371h107q361 343 361 869q0 122 -18 255l11 5q123 -272 123 -611q0 -351 -121 -603q138 -60 209 -106l-5 -9q-134 41 -237 55q-54 -91 -121 -133q-32 48 -98 142 q-46 -1 -146 -26l66 -114l-8 -4q-29 36 -84 109q-80 -26 -163 -71q-92 92 -199 151zM367 1733q71 105 138 167q18 -128 53 -202q31 -66 119 -172q-100 21 -173 76q-36 27 -137 131z" />
<glyph unicode="&#xfa;" horiz-adv-x="1026" d="M86 167q103 65 257 86q-198 347 -198 690q0 239 97 448q101 -126 270 -242q-165 -230 -165 -520q0 -176 62 -371h107q361 343 361 869q0 122 -18 255l11 5q123 -272 123 -611q0 -351 -121 -603q138 -60 209 -106l-5 -9q-134 41 -237 55q-54 -91 -121 -133q-32 48 -98 142 q-46 -1 -146 -26l66 -114l-8 -4q-29 36 -84 109q-80 -26 -163 -71q-92 92 -199 151zM479 1531q105 94 145 150q51 70 90 188q62 -80 105 -187q-124 -87 -157 -104q-81 -42 -183 -47z" />
<glyph unicode="&#xfb;" horiz-adv-x="1026" d="M86 167q103 65 257 86q-198 347 -198 690q0 239 97 448q101 -126 270 -242q-165 -230 -165 -520q0 -176 62 -371h107q361 343 361 869q0 122 -18 255l11 5q123 -272 123 -611q0 -351 -121 -603q138 -60 209 -106l-5 -9q-134 41 -237 55q-54 -91 -121 -133q-32 48 -98 142 q-46 -1 -146 -26l66 -114l-8 -4q-29 36 -84 109q-80 -26 -163 -71q-92 92 -199 151zM301 1540q96 70 187 177h136q89 -114 187 -177l-7 -16q-128 26 -248 91q-127 -67 -248 -91z" />
<glyph unicode="&#xfc;" horiz-adv-x="1026" d="M86 167q103 65 257 86q-198 347 -198 690q0 239 97 448q101 -126 270 -242q-165 -230 -165 -520q0 -176 62 -371h107q361 343 361 869q0 122 -18 255l11 5q123 -272 123 -611q0 -351 -121 -603q138 -60 209 -106l-5 -9q-134 41 -237 55q-54 -91 -121 -133q-32 48 -98 142 q-46 -1 -146 -26l66 -114l-8 -4q-29 36 -84 109q-80 -26 -163 -71q-92 92 -199 151zM318 1706l132 112l46 -165l-133 -124zM674 1706l132 112l46 -165l-132 -124z" />
<glyph unicode="&#xff;" horiz-adv-x="916" d="M79 1420l7 6q221 -258 316 -550q158 223 158 495q67 0 167 18q152 26 165 27q-29 -176 -169 -366q-123 -167 -288 -290q31 -128 31 -272q0 -292 -119 -510q-90 135 -266 249q127 171 176 422q-31 -19 -95 -53l-8 8q44 42 114 111q4 34 4 70q0 246 -193 635zM132 1706 l132 112l48 -165l-134 -124zM488 1706l132 112l46 -165l-132 -124z" />
<glyph unicode="&#x152;" horiz-adv-x="2297" d="M154 657q0 258 163 481q159 217 406 313l8 -9q-107 -58 -178 -140q238 53 414 105q246 -23 408 -236l38 62q-120 80 -170 133l3 9q121 -49 222 -69q69 71 76 78q51 49 86 63l9 -5q-28 -37 -57 -73q-36 -49 -44 -78q106 -20 203 -20q176 0 388 67q71 -225 140 -360h-36 q-365 -4 -746 208q-26 -73 -33 -140q34 -67 49 -131q184 -113 412 -113q26 0 51 2q77 -148 134 -228l-46 -1q-258 -7 -525 172q1 -54 -9 -98q78 -155 229 -253q155 -100 326 -100q117 0 254 57l10 -11q-75 -92 -388 -378q-15 -3 -32 -3q-149 0 -310 106q-143 94 -238 229 q-225 -308 -596 -361l-6 9q148 55 268 141l-328 -121q-245 43 -402 246q-153 197 -153 447zM380 844q0 -277 229 -477q211 -185 500 -216q160 163 160 398q0 306 -230 497q-205 170 -527 205q-132 -185 -132 -407z" />
<glyph unicode="&#x153;" horiz-adv-x="2297" d="M154 657q0 258 163 481q159 217 406 313l8 -9q-107 -58 -178 -140q238 53 414 105q246 -23 408 -236l38 62q-120 80 -170 133l3 9q121 -49 222 -69q69 71 76 78q51 49 86 63l9 -5q-28 -37 -57 -73q-36 -49 -44 -78q106 -20 203 -20q176 0 388 67q71 -225 140 -360h-36 q-365 -4 -746 208q-26 -73 -33 -140q34 -67 49 -131q184 -113 412 -113q26 0 51 2q77 -148 134 -228l-46 -1q-258 -7 -525 172q1 -54 -9 -98q78 -155 229 -253q155 -100 326 -100q117 0 254 57l10 -11q-75 -92 -388 -378q-15 -3 -32 -3q-149 0 -310 106q-143 94 -238 229 q-225 -308 -596 -361l-6 9q148 55 268 141l-328 -121q-245 43 -402 246q-153 197 -153 447zM380 844q0 -277 229 -477q211 -185 500 -216q160 163 160 398q0 306 -230 497q-205 170 -527 205q-132 -185 -132 -407z" />
<glyph unicode="&#x178;" horiz-adv-x="916" d="M79 1420l7 6q221 -258 316 -550q158 223 158 495q67 0 167 18q152 26 165 27q-29 -176 -169 -366q-123 -167 -288 -290q31 -128 31 -272q0 -292 -119 -510q-90 135 -266 249q127 171 176 422q-31 -19 -95 -53l-8 8q44 42 114 111q4 34 4 70q0 246 -193 635zM354 1558 q88 107 119 172q36 75 54 201q66 -63 136 -167q-100 -102 -136 -130q-74 -55 -173 -76z" />
<glyph unicode="&#x2c6;" horiz-adv-x="320" d="M-239 1573q95 72 188 178h135q89 -115 188 -178l-10 -15q-127 26 -245 91q-128 -67 -248 -91z" />
<glyph unicode="&#x2dc;" horiz-adv-x="680" d="M-15 1593q99 203 267 203q51 0 102 -19q6 -23 13 -68q84 -47 153 -47q98 0 185 98q-81 -201 -260 -201q-55 0 -107 19q-14 31 -17 68q-76 43 -138 43q-91 0 -198 -96z" />
<glyph unicode="&#x2000;" horiz-adv-x="965" />
<glyph unicode="&#x2001;" horiz-adv-x="1931" />
<glyph unicode="&#x2002;" horiz-adv-x="965" />
<glyph unicode="&#x2003;" horiz-adv-x="1931" />
<glyph unicode="&#x2004;" horiz-adv-x="643" />
<glyph unicode="&#x2005;" horiz-adv-x="482" />
<glyph unicode="&#x2006;" horiz-adv-x="321" />
<glyph unicode="&#x2007;" horiz-adv-x="321" />
<glyph unicode="&#x2008;" horiz-adv-x="241" />
<glyph unicode="&#x2009;" horiz-adv-x="386" />
<glyph unicode="&#x200a;" horiz-adv-x="107" />
<glyph unicode="&#x2010;" horiz-adv-x="544" d="M147 526q110 -49 234 -49q95 0 230 30q-163 -146 -382 -163z" />
<glyph unicode="&#x2011;" horiz-adv-x="544" d="M147 526q110 -49 234 -49q95 0 230 30q-163 -146 -382 -163z" />
<glyph unicode="&#x2012;" horiz-adv-x="544" d="M147 526q110 -49 234 -49q95 0 230 30q-163 -146 -382 -163z" />
<glyph unicode="&#x2013;" horiz-adv-x="1046" d="M156 526q212 -63 510 -63q234 0 428 44q-272 -189 -598 -189q-121 0 -257 26z" />
<glyph unicode="&#x2014;" horiz-adv-x="1289" d="M147 526q267 -111 597 -111q308 0 594 92q-335 -234 -675 -234q-196 0 -434 71z" />
<glyph unicode="&#x2018;" horiz-adv-x="342" d="M86 1316q101 70 189 104q-31 -110 -31 -179q0 -75 46 -232q-85 56 -131 135q-24 42 -73 172z" />
<glyph unicode="&#x2019;" horiz-adv-x="342" d="M62 1009q45 161 45 235q0 68 -30 176q91 -35 187 -104q-44 -126 -71 -172q-46 -79 -131 -135z" />
<glyph unicode="&#x201a;" horiz-adv-x="342" d="M62 -240q45 160 45 234q0 68 -30 177q91 -35 187 -104q-44 -126 -71 -173q-46 -78 -131 -134z" />
<glyph unicode="&#x201c;" horiz-adv-x="533" d="M86 1316q101 70 189 104q-31 -110 -31 -179q0 -75 46 -232q-85 56 -131 135q-24 42 -73 172zM283 1316q100 70 189 104q-31 -110 -31 -179q0 -75 45 -232q-85 56 -130 135q-25 42 -73 172z" />
<glyph unicode="&#x201d;" horiz-adv-x="533" d="M68 1009q45 157 45 233q0 68 -30 178q88 -34 189 -104q-49 -129 -73 -172q-46 -79 -131 -135zM264 1009q46 157 46 233q0 68 -31 178q89 -34 189 -104q-48 -129 -73 -172q-46 -79 -131 -135z" />
<glyph unicode="&#x201e;" horiz-adv-x="533" d="M68 -240q45 157 45 233q0 67 -30 178q88 -34 189 -104q-49 -130 -73 -172q-46 -79 -131 -135zM264 -240q46 157 46 233q0 67 -31 178q89 -34 189 -104q-48 -130 -73 -172q-46 -79 -131 -135z" />
<glyph unicode="&#x2022;" horiz-adv-x="544" d="M162 522q0 86 62 152t149 66q96 0 162.5 -61.5t66.5 -156.5q0 -87 -61 -152q-63 -68 -150 -68q-97 0 -163 61.5t-66 158.5z" />
<glyph unicode="&#x202f;" horiz-adv-x="386" />
<glyph unicode="&#x205f;" horiz-adv-x="482" />
<glyph unicode="&#x25fc;" horiz-adv-x="1420" d="M0 0v1420h1420v-1420h-1420z" />
</font>
</defs>
</svg>
